<?xml version="1.0" encoding="UTF-8" standalone="no"?>
<!-- Created with Inkscape (http://www.inkscape.org/) -->

<svg
   xmlns:dc="http://purl.org/dc/elements/1.1/"
   xmlns:cc="http://creativecommons.org/ns#"
   xmlns:rdf="http://www.w3.org/1999/02/22-rdf-syntax-ns#"
   xmlns:svg="http://www.w3.org/2000/svg"
   xmlns="http://www.w3.org/2000/svg"
   xmlns:sodipodi="http://sodipodi.sourceforge.net/DTD/sodipodi-0.dtd"
   xmlns:inkscape="http://www.inkscape.org/namespaces/inkscape"
   version="1.1"
   id="svg77"
   width="1488.5709"
   height="1488.1074"
   viewBox="0 0 1488.5709 1488.1073"
   sodipodi:docname="favicon.svg"
   inkscape:version="0.92.4 (5da689c313, 2019-01-14)"
   inkscape:label="Unedited Objects">
  <title
     id="title3868">IX Drone Logo</title>
  <metadata
     id="metadata83">
    <rdf:RDF>
      <cc:Work
         rdf:about="">
        <dc:format>image/svg+xml</dc:format>
        <dc:type
           rdf:resource="http://purl.org/dc/dcmitype/StillImage" />
        <dc:title>IX Drone Logo</dc:title>
      </cc:Work>
    </rdf:RDF>
  </metadata>
  <defs
     id="defs81" />
  <sodipodi:namedview
     pagecolor="#ffffff"
     bordercolor="#666666"
     borderopacity="1"
     objecttolerance="10"
     gridtolerance="10"
     guidetolerance="10"
     inkscape:pageopacity="0"
     inkscape:pageshadow="2"
     inkscape:window-width="1920"
     inkscape:window-height="1048"
     id="namedview79"
     showgrid="false"
     inkscape:zoom="0.2798796"
     inkscape:cx="1016.1174"
     inkscape:cy="345.29181"
     inkscape:window-x="0"
     inkscape:window-y="0"
     inkscape:window-maximized="0"
     inkscape:current-layer="svg77" />
  <rect
     style="fill:#000000;stroke-width:0.75035149"
     id="rect106"
     width="1488.5699"
     height="1488.1"
     x="0"
     y="0.0074462891"
     inkscape:label="Black Background" />
  <g
     id="g3776"
     inkscape:label="Edited Items v7"
     transform="translate(-189.12273,-117.15444)"
     style="display:inline"
     inkscape:export-xdpi="2.0637243"
     inkscape:export-ydpi="2.0637243">
    <path
       style="display:inline;fill:#ffffff;stroke-width:1.33333337"
       d="m 308.57268,117.15444 c -12.64452,0.3523 -28.80558,-0.56482 -37.20508,11.00586 -7.73893,16.46376 -4.47533,35.39137 -9.2207,52.43945 -3.19016,3.34566 -8.3284,4.51316 -11.55078,8.15039 -7.69202,6.32191 -11.2265,16.51417 -9.70445,26.28707 -0.70948,68.38369 -2.0505,136.76309 -2.909,205.1472 -0.70099,47.07981 -1.41821,94.1594 -2.22054,141.23761 -7.78723,5.93968 -9.53149,16.47324 -8.25099,25.61434 -2.54394,85.34861 -5.08788,170.69721 -7.63182,256.04581 -8.70733,11.03774 -23.14222,20.3941 -23.36719,35.94922 -1.71125,6.71214 -6.94579,12.46938 -6.02734,19.84766 0.0421,10.15743 1.18054,20.43815 -1.1543,30.39258 0.38366,15.98683 -0.86488,31.88627 0.3086,47.81445 0.26256,5.25003 2.89506,10.11254 4.74023,14.68355 -0.56851,10.85117 11.41521,18.90707 21.46454,15.97537 11.78368,-0.3016 23.54918,-0.481 35.28155,0.3821 0.10204,21.0956 0.13545,42.1915 0.0352,63.2871 5.16873,2.5435 11.02259,2.9011 16.68359,2.8477 0.22403,147.7976 0.44751,295.5951 0.67188,443.3926 3.50973,2.4261 7.84776,3.0434 12.01758,3.084 6.44873,26.676 9.51398,54.5471 19.62695,80.1191 8.30374,9.5628 26.85887,2.3837 26.375,-10.3339 5.90223,-23.0616 9.28498,-46.8605 16.1582,-69.5215 7.7113,-1.3147 13.33472,-9.4814 11.32798,-17.1387 0.0384,-143.0332 -0.0508,-286.3956 0.78921,-429.2227 7.79714,0.3539 17.54495,-5.0507 16.5332,-13.8984 -0.34632,-17.6245 -0.11679,-35.2527 -0.1621,-52.879 18.02579,-0.277 36.05355,-0.3929 54.08007,-0.6113 3.16545,-6.9793 -0.37566,-16.03597 5.74024,-21.65821 4.54019,-17.74973 0.90378,-36.33036 2.13867,-54.16211 -1.55118,-9.52814 -2.23411,-19.07302 -1.04688,-28.54883 0.195,-8.07655 -2.62992,-15.83148 -5.80078,-23.01367 -0.64403,-10.0448 -5.76903,-19.23145 -13.6712,-25.39073 -6.38219,-5.41831 -12.23075,-13.02374 -10.63932,-21.85276 -2.21577,-88.3823 -5.23863,-176.7416 -7.7383,-265.11588 -4.98915,-1.56345 -10.3152,-6.59576 -7.87305,-12.22071 -1.76493,-119.04492 -3.5302,-238.08984 -5.29492,-357.13476 -6.30382,-6.53442 -13.10273,-12.68919 -20.83985,-17.49219 -4.85113,-17.02086 -1.38964,-35.88478 -9.17383,-52.15625 -7.82375,-11.81903 -23.74069,-11.17932 -36.23628,-11.13561 -2.0863,-0.003 -4.17304,-0.0821 -6.25395,-0.21595 z m 3.39648,30.99219 c 4.25846,0.28071 8.58805,-0.57146 12.78516,0.43359 1.05238,9.05477 3.12408,18.71227 3.47266,27.39453 -11.42968,-0.0878 -22.93234,0.44676 -34.27735,-0.16797 1.334,-9.08372 1.57549,-19.12097 4.3418,-27.47851 4.55415,-0.18702 9.12379,-0.26008 13.67773,-0.18164 z m -21.95117,58.52148 c 17.54619,1.02604 35.40398,-1.0845 52.95508,1.00195 4.45315,0.52686 9.15661,3.6999 7.73828,8.77149 0.51414,51.86688 1.63702,103.7497 2.28142,155.62645 0.89272,59.11988 1.78602,118.23975 2.66194,177.35988 -29.14933,-2.64091 -58.57548,-1.28552 -87.70312,-0.18164 -3.70541,1.12345 0.041,-5.28143 -1.14475,-6.78675 1.89881,-110.50823 2.68602,-221.27604 5.48654,-331.6195 5.06079,-3.43117 11.61012,-4.21056 17.72461,-4.17188 z m 45.02149,372.01172 c 9.6985,0.44929 19.90927,-0.0312 28.58789,4.44727 1.84523,6.97985 -0.61377,14.31194 0.89335,21.39416 3.40281,83.25941 3.22348,166.78526 9.37618,249.8988 1.31971,4.04889 3.85592,7.56947 6.69336,10.69336 -46.27248,0.53093 -92.54858,0.19819 -138.82227,0.0547 6.75861,-7.77303 9.05013,-18.31441 8.21199,-28.36491 4.55288,-84.37518 4.78051,-168.98568 8.84075,-253.31868 5.81849,-5.41909 15.10309,-3.56707 22.3405,-4.38103 17.95987,-0.50213 35.91787,0.11013 53.87825,-0.42366 z M 223.69182,896.32436 c 34.43739,0.87171 69.09676,0.12887 103.61914,0.37532 24.20264,0.1397 48.49465,-0.35555 72.63867,0.28484 1.31025,3.05864 1.83576,5.99573 -2.86718,4.37149 -58.55468,-0.0473 -117.1096,0.12883 -175.66407,-0.0942 0.32239,-1.45506 -0.0239,-5.03433 2.27344,-4.9375 z m 4.1543,35.41406 c 57.39091,1.04623 114.79721,-0.55874 172.18554,0.73438 4.71274,5.13534 1.27316,12.38349 2.56594,18.57136 -0.17592,7.14477 1.09021,15.26368 -2.03664,21.66692 -1.69624,1.73114 -1.23205,6.59671 -4.85349,4.78455 -57.30398,-0.41474 -114.61019,0.15162 -171.91409,-0.2826 -3.10386,-4.73622 -4.91981,-10.06075 -3.9225,-15.7219 0.11252,-8.80554 -1.17014,-18.26597 1.29555,-26.657 1.59656,-3.22402 2.53632,-3.81901 6.67969,-3.09571 z m 83.32422,86.95708 c 10,0 20,0 30,0 0,8.4447 0,16.8893 0,25.334 -20,0 -40,0 -60,0 0,-8.4447 0,-16.8893 0,-25.334 10,0 20,0 30,0 z m 12.59961,55.5879 c 0.15479,119.7055 0.0222,240.1025 0.0664,360.0684 0,18.7812 0,37.5625 0,56.3437 -8.44401,0 -16.88802,0 -25.33203,0 0,-138.6803 0,-277.3606 0,-416.041 8.4212,-0.081 16.87932,0.6895 25.26563,-0.3711 z"
       id="path3766"
       inkscape:connector-curvature="0"
       inkscape:label="Edited Pen" />
    <g
       id="g258"
       inkscape:label="Modular Drone"
       transform="translate(-184.20286,134.16052)">
      <path
         style="fill:#ffffff;stroke-width:3.85878515"
         d="m 1841.6855,883.49414 c -40.1945,33.52488 -81.545,65.8426 -126.1233,93.39618 -36.5341,23.62318 -74.4111,47.20268 -101.3239,82.12918 -7.9429,12.1871 -7.7599,27.5048 -15.252,40.0489 -12.3423,23.4534 -31.3457,42.4328 -47.0474,63.4728 -18.6577,22.8649 -43.1088,39.9136 -62.7849,61.7981 -44.3857,46.8922 -84.2231,97.8528 -128.6633,144.7049 -12.6653,13.8521 -25.4404,27.9901 -36.3052,43.1394 0.1641,7.722 6.5901,14.0152 12.7442,17.7109 5.8963,-0.8639 9.959,-6.3884 15.1695,-9.0028 30.3094,-22.0989 58.3325,-47.3684 89.8181,-67.9366 41.357,-28.2051 87.5474,-51.1856 121.7995,-88.2676 8.8556,-10.2668 13.5042,-23.2538 16.697,-36.1813 12.0582,-27.5633 32.1679,-50.4702 50.6582,-73.8292 30.0998,-35.0463 64.9574,-65.6701 95.3029,-100.4751 42.8299,-47.4809 84.2514,-96.22088 126.8991,-143.85697 2.5455,-3.56906 7.1365,-7.38668 6.976,-11.86251 -3.4085,-7.11244 -9.4189,-12.47375 -14.9863,-17.86719 -1.1927,0.95964 -2.3854,1.91928 -3.5782,2.87891 z"
         id="path248"
         inkscape:connector-curvature="0"
         inkscape:label="Blade 4" />
      <path
         id="path246"
         transform="translate(373.32559,-17.00608)"
         style="display:inline;fill:#ffffff;stroke-width:3.85878515"
         d="m 144.5332,953.98828 c -0.0461,0.15753 -0.0865,0.30166 -0.13086,0.45508 -0.0108,0.1003 -0.0175,0.20049 -0.0293,0.30078 0.0906,-0.3268 0.13875,-0.56902 0.16015,-0.75586 z m 7.52735,4.98242 c 0.0818,0.24592 0.14756,0.41731 0.2539,0.74805 0.25825,0.49231 0.70564,1.38484 0.9043,1.91797 0.007,0.0196 0.0213,0.0689 0.0293,0.0898 0.27709,0.57636 0.55206,1.15363 0.82812,1.73047 2.39196,6.52922 1.10341,2.48465 2.86328,12.64844 l 0.0918,0.35156 c 0.0282,0.22735 0.12398,0.90919 0.084,0.68359 -0.0731,-0.41226 -0.11128,-0.66266 -0.17578,-1.03515 l -1.95703,-7.50391 c 3.07888,17.57339 1.96186,2.72756 2.59375,14.51563 -0.19785,4.57102 -0.15604,7.75793 -1.14062,12.3164 -0.16611,0.76906 -0.36672,1.91665 -0.58203,3.15625 -0.16023,4.0985 -0.36221,7.8453 -0.11914,5.1407 -0.37998,5.2201 -1.25183,17.235 -1.57422,21.3711 -0.0484,0.6214 -0.089,1.2435 -0.13477,1.8652 35.7085,40.7058 71.9437,80.9302 110.9043,118.5703 27.7511,29.8263 54.84529,61.1811 73.56054,97.6016 4.39032,12.7838 6.89573,26.6683 16.47852,36.9316 19.43858,23.7752 46.20198,39.8117 71.40625,56.7891 39.64717,25.038 79.2421,50.4613 114.97656,80.9746 13.01309,10.3958 26.13882,21.3871 40.88867,28.9648 6.64065,-2.0569 10.66071,-8.9786 13.31055,-14.916 0.67909,-6.9841 -7.13978,-10.4543 -10.15039,-15.8652 -34.44961,-40.3822 -71.36605,-78.5739 -105.38672,-119.334 -28.55905,-33.5034 -57.69543,-66.702 -91.47851,-95.0977 -22.41692,-21.8265 -40.97705,-47.1989 -59.84961,-72.0351 -9.14451,-13.0177 -14.90524,-28.0709 -18.28125,-43.5137 -8.22012,-20.1806 -26.61796,-33.3967 -42.23047,-47.5664 -36.58789,-29.2695 -77.91303,-52.22173 -116.11328,-79.50004 z m 1.1875,2.75586 c -0.29361,-0.61074 -0.58627,-1.22185 -0.87696,-1.83398 0.3489,1.07474 0.91343,2.72358 2.02149,5.58203 0.47591,1.22769 -0.66295,-2.4364 -1.14453,-3.74805 z m -0.87696,-1.83398 c -0.0188,-0.058 -0.039,-0.11923 -0.0566,-0.17383 -0.12557,-0.2394 -0.31917,-0.61547 -0.20117,-0.36523 0.085,0.18016 0.17241,0.35913 0.25781,0.53906 z"
         inkscape:connector-curvature="0"
         inkscape:label="Cut Blade 3" />
      <path
         style="fill:#ffffff;stroke-width:3.85878515"
         d="m 1338.8594,61.826172 c -7.1463,2.903081 -13.2711,10.44403 -13.2149,18.197266 4.4014,7.802002 11.5543,13.654571 16.8539,20.832022 39.6689,44.6006 79.8619,88.74179 118.4411,134.29688 22.2412,25.8185 46.0297,50.45415 71.9764,72.47454 22.3762,22.01085 41.1509,47.33986 59.9156,72.39369 8.7856,12.80659 14.5304,27.48753 17.7251,42.61615 8.1567,20.22341 26.6257,33.46919 42.2472,47.65311 43.4022,34.7185 93.183,60.35979 136.7032,94.93643 19.4222,14.77153 37.8607,30.78294 57.1102,45.76788 5.7635,-5.64606 12.3657,-11.08397 15.2793,-18.86914 -15.1586,-23.58502 -36.8189,-42.09405 -54.4037,-63.92647 -49.1329,-56.20963 -97.6838,-113.05131 -151.4283,-164.96191 -27.763,-29.83741 -54.8666,-61.20984 -73.584,-97.64873 -4.3711,-12.54361 -6.7271,-26.3654 -16.1153,-36.45478 -18.6679,-23.22489 -44.9464,-39.15693 -69.4089,-55.71186 -40.1215,-25.42406 -80.3995,-51.00855 -116.6323,-81.916954 -13.2626,-10.603351 -26.6154,-21.730748 -41.4646,-29.678124 z"
         id="path244"
         inkscape:connector-curvature="0"
         inkscape:label="Blade 2" />
      <path
         id="path269"
         transform="translate(373.32559,-17.00608)"
         style="display:inline;fill:#ffffff;stroke-width:3.85878515"
         d="m 582.15625,78.671875 c -28.57776,16.246924 -51.6792,40.228765 -78.66211,58.886715 -39.96414,29.90036 -84.33367,53.3987 -123.78711,83.99024 -13.34942,11.28931 -27.31222,23.52844 -34.38867,39.81445 -4.04496,11.98148 -6.82478,24.60568 -14.27148,35.11328 -17.66751,29.05442 -39.68621,55.26595 -62.73438,80.16602 -27.66495,28.6457 -56.53641,56.14836 -82.55469,86.34961 1.41127,3.58802 2.49098,7.33107 3.38672,11.16015 3.9155,2.60795 8.4362,5.45159 13.6875,8.53125 -2.29729,-11.75162 -3.56274,-14.30836 -1.08594,-8.89453 0.35404,3.0047 0.83234,5.99869 1.25977,8.99805 0.25269,0.14798 0.48222,0.28845 0.73828,0.4375 0.55584,0.32354 0.42275,1.02465 0.21484,1.76758 3.40568,2.76845 3.36408,4.62366 0.63868,8.86328 0.21608,0.23912 0.41202,0.46401 0.63086,0.70508 0.86301,0.95068 -0.90073,1.86581 -2.32227,2.79883 -0.17065,0.50306 -0.33301,1.00807 -0.46094,1.51562 -0.0491,0.19499 -0.20651,0.77705 -0.16601,0.58008 0.13658,-0.66383 0.30533,-1.32312 0.46679,-1.98242 -0.25217,0.16959 -0.47754,0.34059 -0.68164,0.51172 -0.48462,3.05448 -0.92618,6.11661 -1.4375,9.16601 1.02332,-6.50309 0.15601,-2.89369 -0.8457,1.52344 0.91493,0.7251 -0.33523,3.03327 -1.1543,5.08984 -0.39983,1.72257 -0.66894,2.77308 -0.58984,2.00391 0.0595,-0.57787 0.3003,-1.2769 0.58984,-2.00391 0.32993,-1.42139 0.75172,-3.31463 1.1543,-5.08984 -0.13723,-0.10876 -0.30815,-0.19216 -0.55273,-0.22266 -0.31215,-0.039 -0.62521,-0.0669 -0.9375,-0.10351 0.10285,3.99782 0.15339,5.31646 -0.70313,8.86132 0.39631,2.71891 -0.23264,4.74818 -1.64258,6.23633 -0.0209,0.0769 -0.0257,0.10149 -0.0469,0.17969 -0.24831,0.91633 -0.62428,1.78848 -1.02344,2.65234 0.15363,0.82838 -0.22434,1.70752 -0.30664,2.5586 -0.30139,3.33793 -1.10643,6.95773 -2.15234,10.55273 1.76397,-1.12112 3.52498,-2.2474 5.30078,-3.35156 38.46266,-24.94834 79.06307,-49.25139 107.61718,-85.99414 8.12662,-12.35089 7.90282,-27.86692 15.52344,-40.54688 12.46945,-23.59709 31.64205,-42.68149 47.45117,-63.87304 18.98351,-23.03845 43.75019,-40.24402 63.53711,-62.51758 43.7054,-46.36638 83.14824,-96.69025 127.03711,-142.97656 12.79234,-13.99067 25.56413,-28.13151 36.65625,-43.507816 -0.1635,-7.725005 -6.8466,-14.699389 -13.38281,-17.949219 z M 189.14453,474.15234 c -0.86807,-0.57818 -1.70402,-1.1427 -2.51367,-1.69726 0.44603,0.57687 0.89072,1.15241 1.35937,1.75 0.49192,0.34157 0.91397,0.62103 1.38477,0.94336 -0.075,-0.33286 -0.15287,-0.66443 -0.23047,-0.9961 z m -2.51367,-1.69726 c -1.5608,-2.01864 -2.95079,-3.87425 -4.25781,-5.64258 -0.4759,0.53526 -0.95008,1.07199 -1.42578,1.60742 1.73223,1.2717 3.59495,2.60458 5.68359,4.03516 z m 11.77539,29.51953 c -0.7136,0.79073 -1.51281,1.68455 -2.29687,2.55664 0.72918,0.21737 1.46053,0.42817 2.18945,0.64648 0.0845,-1.09187 0.14862,-2.19421 0.10742,-3.20312 z m -0.17187,4.05664 c -1.19931,0.0395 -2.39941,0.0846 -3.59961,0.13867 -0.34578,0.38534 -0.62002,0.68857 -0.97266,1.08203 1.5519,-0.0261 3.0499,0.01 4.46875,0.13672 0.0284,-0.43528 0.0657,-0.89419 0.10352,-1.35742 z m -5.10547,1.81445 c -0.31271,0.34912 -0.53953,0.59809 -0.85547,0.95118 2.45083,1.45751 4.2083,3.7148 5.03515,7.04492 0.53025,-2.06305 0.80354,-4.2924 0.76953,-6.88477 -0.003,-0.19225 0.0135,-0.42133 0.0195,-0.62891 -1.65411,-0.19143 -3.31087,-0.35157 -4.96875,-0.48242 z m 1.40039,19.1875 c -0.44621,0.93518 -0.90141,1.86908 -1.25196,2.83985 -0.2429,0.67266 0.77116,-1.21545 1.04297,-1.87696 0.0884,-0.21516 0.15139,-0.58917 0.20899,-0.96289 z"
         inkscape:connector-curvature="0"
         inkscape:label="Cut Blade 1" />
      <path
         style="display:inline;fill:#ffffff;stroke-width:3.87704802"
         d="m 1583.6387,286.74609 c -21.1064,0.45273 -43.6397,14.85734 -47.4942,36.69727 -5.9348,15.1012 -22.7357,20.78592 -35.4396,28.70284 -58.2712,31.47386 -117.3213,61.55609 -176.8787,90.4788 -6.6524,2.16287 -13.4469,-3.67272 -13.2422,-10.46875 -3.4193,-8.66875 -11.5344,-14.31558 -16.7207,-21.87695 -13.367,-15.64513 -30.8362,-29.05088 -51.3801,-33.12577 -18.1371,-5.19863 -37.9459,-5.09278 -55.5132,-12.6323 -7.5594,-4.49001 -15.6914,-8.48696 -24.7253,-8.04909 -15.7749,-0.85131 -32.2198,-0.55498 -48.106,1.30716 -8.9831,3.3 -16.6148,9.93115 -26.4278,11.06445 -24.8332,5.26894 -52.2654,6.42488 -73.3652,21.95703 -10.9066,8.12844 -19.37109,18.97133 -28.70435,28.75993 -4.48839,5.10107 -7.75778,11.09955 -9.5808,17.56234 -2.83992,5.84921 -11.0124,8.24155 -16.11646,3.80574 -66.5916,-31.7249 -130.6159,-68.74946 -198.26831,-98.13387 -10.65901,-2.51261 -14.1334,-14.21364 -16.22266,-23.53906 -12.4688,-29.25462 -55.56478,-38.30467 -78.46679,-16.08789 -15.91439,14.21795 -22.11929,38.86362 -12.42774,58.31836 7.06437,16.25641 23.66805,27.10243 41.13086,28.55078 18.42623,3.69319 30.98514,18.78565 44.64453,30.32422 36.07056,33.30276 70.02222,68.81235 105.19234,103.05239 44.0004,43.79488 87.92,87.67084 131.91704,131.46909 0,61.55599 0,123.11198 0,184.66797 -84.32554,83.58322 -166.05163,169.83462 -252.87695,250.85352 -9.47957,8.4994 -21.10959,15.0975 -34.03125,15.9746 -28.84203,6.6838 -45.05791,42.1981 -32.79883,68.8027 11.63866,27.398 49.70123,37.9154 73.8789,20.7598 9.57047,-5.8217 14.38256,-16.5255 20.15235,-25.7676 14.57312,-17.5706 37.02845,-25.0113 56.1007,-36.3568 59.21716,-30.774 118.62809,-61.478 178.53992,-90.6959 105.487,0 210.974,0 316.4609,0 72.9113,38.1459 147.5933,73.015 218.9747,114.0078 10.3735,6.7245 18.0284,16.8567 23.0996,27.9746 15.8658,22.3808 51.1681,25.4434 71.6699,7.5156 13.9198,-11.2734 19.8587,-30.4895 15.8281,-47.6679 -3.8608,-20.1594 -21.0328,-38.6415 -42.0488,-39.7344 -17.135,-2.5623 -28.4589,-17.1575 -41.1487,-27.4519 -31.2328,-29.0284 -60.7154,-59.8799 -91.1494,-89.73288 -49.3205,-49.41685 -98.4259,-99.04861 -147.7175,-148.49296 0,-61.52539 0,-123.05078 0,-184.57617 87.4715,-86.52509 172.7621,-175.29785 262.7304,-259.25781 8.8412,-5.48546 19.9331,-5.93345 28.2318,-12.51289 12.0531,-6.25102 24.8584,-14.40763 28.9889,-28.18242 8.1552,-19.93382 2.2546,-45.32268 -15.6582,-58.11524 -8.7994,-6.75913 -19.9158,-10.51603 -31.0312,-10.14844 z m -830.21878,80.15625 c 27.94089,8.65681 53.13027,24.41279 79.56523,36.58329 43.14789,21.77656 85.9443,44.24326 128.98555,66.23117 -0.13696,40.76817 -0.30411,81.90482 -8.56445,122.00781 -68.70537,-70.22506 -140.50756,-137.53549 -206.16211,-210.66602 -3.6755,-5.56325 -1.69256,-14.30569 6.17578,-14.15625 z m 781.43558,0.0586 c 8.253,0.24371 9.9569,12.17364 3.8131,16.50959 -65.0038,71.52326 -135.3293,137.90552 -203.0436,206.80095 -6.0827,-2.32741 -3.1815,-10.54813 -4.875,-15.36914 -3.9326,-34.10363 -5.9229,-68.49513 -4.5059,-102.82031 6.7807,-9.18966 19.0552,-10.73804 28.0512,-16.9181 58.9001,-29.71778 116.5798,-62.24954 177.4567,-87.87096 1.0147,-0.24867 2.0596,-0.36088 3.1035,-0.33203 z m -389.2969,17.80859 c 9.7503,-0.28011 19.0443,3.91211 26.623,9.63672 13.8931,3.70179 28.582,1.24097 42.4682,5.37161 26.1483,4.75252 52.33,19.2538 64.2232,43.97995 18.5146,34.55322 19.5813,74.85395 22.3397,113.0496 1.0487,21.20725 1.5746,42.437 2.6779,63.64181 -6.7286,4.41026 -13.4584,8.81887 -20.1875,13.22851 -0.5236,127.8248 2.0611,255.7822 -5.4707,383.46287 -88.3979,-0.6983 -176.927,1.4151 -265.2422,-1.498 -7.7494,-3.1018 -5.3676,-12.6659 -5.8418,-19.07229 -2.0592,-119.8672 -3.3517,-239.7456 -4.9707,-359.61914 -9.35694,-8.72151 -19.09486,-20.21155 -17.31892,-33.93164 0.18592,-41.62944 1.87006,-83.53837 9.68276,-124.50857 5.84356,-26.50473 20.39836,-52.55684 44.74366,-66.06955 21.7771,-13.08954 47.7328,-16.57883 72.705,-16.74219 8.6714,-2.47864 15.0313,-10.82724 24.6993,-10.45117 2.9431,-0.35177 5.9078,-0.44054 8.8691,-0.47852 z m 170.0605,499.83399 c 75.2955,76.50591 153.4769,150.27748 225.6309,229.80858 4.5446,5.7693 2.4056,14.8932 -4.4277,17.7813 -8.8056,3.1144 -16.0553,-5.3965 -23.6592,-8.0756 -67.6699,-34.6085 -134.2293,-71.3346 -201.7959,-106.1471 -6.1613,-12.936 -2.182,-27.59337 -3.1603,-41.28992 0.7927,-31.79519 3.0902,-63.52907 4.1759,-95.31359 1.0788,1.07877 2.1576,2.15755 3.2363,3.23633 z m -340.06246,1.3496 c 1.56414,42.51659 5.09259,84.97756 4.89258,127.54688 -8.5794,9.7982 -22.08419,12.4307 -32.60716,19.4898 -63.77394,33.1223 -126.71638,67.9402 -191.37136,99.3012 -7.1357,2.3228 -15.37245,-5.4485 -11.88086,-12.6465 3.84862,-11.0834 14.61072,-17.3698 21.37001,-26.4651 67.97816,-72.3647 139.66102,-141.10348 209.37804,-211.76729 0.0729,1.51367 0.14583,3.02734 0.21875,4.54101 z"
         id="path117"
         inkscape:connector-curvature="0"
         inkscape:label="Edited Drone - NoBlades" />
    </g>
  </g>
</svg>
