<?xml version="1.0" encoding="UTF-8" standalone="no"?>
<!-- Created with Inkscape (http://www.inkscape.org/) -->

<svg
   xmlns:dc="http://purl.org/dc/elements/1.1/"
   xmlns:cc="http://creativecommons.org/ns#"
   xmlns:rdf="http://www.w3.org/1999/02/22-rdf-syntax-ns#"
   xmlns:svg="http://www.w3.org/2000/svg"
   xmlns="http://www.w3.org/2000/svg"
   xmlns:sodipodi="http://sodipodi.sourceforge.net/DTD/sodipodi-0.dtd"
   xmlns:inkscape="http://www.inkscape.org/namespaces/inkscape"
   version="1.1"
   id="svg77"
   viewBox="0 0 1931.4409 1909.5465"
   sodipodi:docname="ix-drone-logo-project.svg"
   inkscape:version="0.92.4 (5da689c313, 2019-01-14)"
   inkscape:label="Unedited Objects">
  <title
     id="title3868">IX Drone Logo</title>
  <metadata
     id="metadata83">
    <rdf:RDF>
      <cc:Work
         rdf:about="">
        <dc:format>image/svg+xml</dc:format>
        <dc:type
           rdf:resource="http://purl.org/dc/dcmitype/StillImage" />
        <dc:title>IX Drone Logo</dc:title>
      </cc:Work>
    </rdf:RDF>
  </metadata>
  <defs
     id="defs81" />
  <sodipodi:namedview
     pagecolor="#ffffff"
     bordercolor="#666666"
     borderopacity="1"
     objecttolerance="10"
     gridtolerance="10"
     guidetolerance="10"
     inkscape:pageopacity="0"
     inkscape:pageshadow="2"
     inkscape:window-width="1920"
     inkscape:window-height="1046"
     id="namedview79"
     showgrid="false"
     inkscape:zoom="0.39580953"
     inkscape:cx="569.2918"
     inkscape:cy="1045.0784"
     inkscape:window-x="0"
     inkscape:window-y="0"
     inkscape:window-maximized="0"
     inkscape:current-layer="g287" />
  <g
     id="g287"
     inkscape:label="Unedited Objects"
     style="display:none"
     transform="translate(-7.9543625,-8.006857)">
    <path
       inkscape:label="Unedited Cable"
       inkscape:connector-curvature="0"
       id="path249"
       d="M 468.79595,1443.7996 C 321.64215,1420.755 219.10911,1375.37 119.32238,1289.1096 55.036185,1233.5376 0,1123.1374 0,1049.7539 0,929.26954 52.986346,846.23723 297.96893,582.82124 418.16857,453.57733 479.02649,363.92691 496.76942,289.96572 520.74986,190.0044 481.32326,101.62255 392.54696,56.332227 342.95108,31.03033 299.1494,27.335951 265.06077,45.579698 250.83032,53.195583 235.48063,53.682199 223.36444,46.901706 206.98527,37.735425 209.45305,33.44873 240.28953,17.502536 350.60224,-39.54234 501.56643,49.363936 533.01614,189.89593 561.2479,316.04889 505.21375,417.45919 255.20318,692.68017 165.64954,791.26409 80.840555,895.34094 66.738709,923.96211 9.514484,1040.1044 48.092294,1174.8937 166.08934,1271.089 c 133.3531,108.714 253.90811,143.8579 464.15391,135.3089 219.96008,-8.9441 334.98167,-52.1844 626.49785,-235.5206 177.349,-111.5359 388.8971,-217.26671 529.9117,-264.84775 165.8963,-55.97662 399.4845,-47.90161 408.3174,14.11534 3.5108,24.6498 2.6104,24.80301 -50.9853,8.67308 -90.7251,-27.30433 -245.9668,-21.37473 -349.511,13.34972 -140.6839,47.17964 -353.0964,154.52531 -522.4233,264.01451 -193.5481,125.1507 -314.49635,185.3264 -432.05501,214.9611 -108.56348,27.3671 -275.89885,37.5806 -371.19964,22.6563 z"
       style="display:inline;fill:#000000;stroke-width:11.5640955" />
    <path
       inkscape:label="Unedited Pen"
       inkscape:connector-curvature="0"
       id="path87"
       d="m 231.5052,1507.8189 c -0.59154,-0.9572 -18.0743,-80.4478 -18.0743,-82.1804 0,-0.245 -2.25,-0.6317 -5,-0.8593 l -5,-0.4139 -0.33722,-222.9365 -0.33723,-222.93648 -8.32944,-0.39685 -8.32944,-0.39686 v -30.66666 -30.66667 l 6.33333,-0.40639 c 4.40982,-0.28296 6.33334,-0.98478 6.33334,-2.31082 0,-1.59184 -5.63551,-1.96284 -34.33334,-2.26028 l -34.33333,-0.35584 -0.4097,-5.66063 c -0.28668,-3.96087 -1.18751,-6.07689 -3,-7.04691 -2.44433,-1.30816 -2.5903,-3.03913 -2.5903,-30.71568 0,-28.83783 0.0483,-29.34724 2.88063,-30.395 2.46541,-0.91201 2.5615,-1.18807 0.66666,-1.91519 -1.85825,-0.71308 -2.21396,-2.98585 -2.21396,-14.14606 0,-7.31307 0.56201,-13.64383 1.2489,-14.06835 2.40698,-1.4876 5.37623,-9.0868 4.66216,-11.93187 -0.91524,-3.64658 1.49712,-8.02524 8.18049,-14.84836 2.90631,-2.96708 7.50952,-8.1104 10.22935,-11.42958 l 4.94514,-6.0349 4.06813,-136.50209 4.06812,-136.5021 3.94182,-3.40164 3.94181,-3.40165 2.69954,-182.00001 2.69954,-182 5.91322,-5.66667 c 3.25227,-3.11666 7.05516,-5.66666 8.45085,-5.66666 5.04362,0 6.46789,-4.05998 8.88713,-25.333335 3.89116,-34.216633 3.42489,-32.347494 8.73047,-34.997929 6.85222,-3.423067 45.14779,-3.423067 52,0 5.30557,2.650435 4.83931,0.781296 8.73048,34.997929 2.41923,21.273355 3.84351,25.333335 8.88712,25.333335 1.39569,0 5.19857,2.55 8.45085,5.66666 l 5.91322,5.66667 2.69954,182 2.69954,182.00001 3.94181,3.40165 3.94181,3.40164 4.06814,136.5021 4.06811,136.50209 4.94515,6.0349 c 2.71983,3.31918 7.32303,8.4625 10.22935,11.42958 6.68337,6.82312 9.09572,11.20178 8.18049,14.84836 -0.71407,2.84507 2.25517,10.44427 4.66215,11.93187 0.6869,0.42452 1.2489,6.75528 1.2489,14.06835 0,11.16021 -0.3557,13.43298 -2.21396,14.14606 -1.89484,0.72712 -1.79874,1.00318 0.66667,1.91519 2.83235,1.04776 2.88063,1.55717 2.88063,30.395 0,27.67655 -0.14598,29.40752 -2.5903,30.71568 -1.81249,0.97002 -2.71333,3.08604 -3,7.04691 l -0.4097,5.66063 -34.33333,0.35584 c -28.69783,0.29744 -34.33334,0.66844 -34.33334,2.26028 0,1.32604 1.92352,2.02786 6.33334,2.31082 l 6.33333,0.40639 v 30.66667 30.66666 l -8.32944,0.39686 -8.32944,0.39685 -0.33723,222.93648 -0.33722,222.9365 -5,0.4139 c -2.75,0.2276 -5,0.6143 -5,0.8593 0,1.7326 -17.48276,81.2232 -18.0743,82.1804 -0.41236,0.6672 -1.57893,1.2131 -2.59237,1.2131 -1.01344,0 -2.18001,-0.5459 -2.59237,-1.2131 z m 8.94649,-82.5216 c -3.91499,-0.2206 -9.97322,-0.2206 -13.46274,0 l -6.34459,0.4014 6.71627,31.5581 6.71627,31.5581 6.74647,-31.5581 6.74647,-31.5581 z m 18.31255,-226.932 V 978.36528 H 234.09757 209.4309 v 220.00002 220 h 24.66667 24.66667 z m 17.33333,-251.33335 v -24.66667 h -42 -42 v 24.66667 24.66666 h 42 42 z m -13.33333,-33.33334 c 0,-1.71576 -4.07408,-2 -28.66667,-2 -24.59259,0 -28.66667,0.28424 -28.66667,2 0,1.71576 4.07408,2 28.66667,2 24.59259,0 28.66667,-0.28424 28.66667,-2 z m 69.33333,-13.28642 c 0,-3.25515 0.78769,-5.04131 2.66666,-6.04691 2.51792,-1.34755 2.66667,-2.79176 2.66667,-25.8914 0,-23.34291 -0.12227,-24.49622 -2.66667,-25.1616 -1.80197,-0.47123 -2.66666,-1.81868 -2.66666,-4.15551 v -3.45816 h -98 -98 v 3.45816 c 0,2.33683 -0.86469,3.68428 -2.66667,4.15551 -2.54443,0.66538 -2.66666,1.81869 -2.66666,25.1616 0,23.09964 0.14874,24.54385 2.66666,25.8914 1.87898,1.0056 2.66667,2.79176 2.66667,6.04691 v 4.61976 h 98 98 z m 3.89252,-80.38025 c -0.0785,-6.5719 -0.89096,-10.43886 -3.01154,-14.33333 l -2.90404,-5.33333 h -95.97694 -95.97695 l -2.90404,5.33333 c -2.12057,3.89447 -2.93304,7.76143 -3.01153,14.33333 l -0.10748,9 h 102 102 l -0.10747,-9 z m -8.03226,-29.33333 c -0.98977,-1.28333 -5.3827,-6.53333 -9.76206,-11.66667 -4.37936,-5.13333 -8.72736,-10.26328 -9.66221,-11.39988 -1.29096,-1.56954 -2.67416,-34.756 -5.75143,-137.99125 l -4.05168,-135.92471 -3.64977,-3.62094 c -6.74944,-6.6961 -14.90527,-7.72989 -60.98311,-7.72989 -46.07785,0 -54.23367,1.03379 -60.9831,7.72989 l -3.64978,3.62094 -4.05168,135.92471 c -3.07727,103.23525 -4.46047,136.42171 -5.75142,137.99125 -0.93486,1.1366 -5.28286,6.26655 -9.66222,11.39988 -4.37936,5.13334 -8.77229,10.38334 -9.76206,11.66667 -1.71007,2.21727 2.95897,2.33333 93.86026,2.33333 90.90129,0 95.57033,-0.116 93.86026,-2.33333 z M 234.09757,475.74026 c 30.08007,0 43.42063,0.49118 49,1.80413 6.98773,1.64436 7.66667,1.60739 7.66667,-0.41753 0,-1.22192 -1.20438,-81.69315 -2.67638,-178.82497 l -2.67637,-176.60329 -4.63739,-4.33334 c -2.55054,-2.38333 -5.81077,-4.33333 -7.24493,-4.33333 -1.43416,0 -2.97837,-0.6 -3.4316,-1.33333 -1.12047,-1.81294 -70.87954,-1.81294 -72,0 -0.45322,0.73333 -1.99745,1.33333 -3.4316,1.33333 -1.43416,0 -4.69438,1.95 -7.24494,4.33333 l -4.63738,4.33334 -2.67637,176.60329 c -1.47201,97.13182 -2.67638,177.60305 -2.67638,178.82497 0,2.02492 0.67894,2.06189 7.66667,0.41753 5.57937,-1.31295 18.91993,-1.80413 49,-1.80413 z m 30,-376.119591 c 0,-2.242861 -0.55711,-8.092862 -1.23801,-13 -0.6809,-4.907139 -1.95846,-14.406151 -2.839,-21.108917 l -1.60102,-12.186844 -4.82765,-0.798481 c -6.2464,-1.033138 -32.74224,-1.033138 -38.98864,0 l -4.82765,0.798481 -1.60101,12.186844 c -0.88055,6.702766 -2.15811,16.201778 -2.83901,21.108917 -0.68091,4.907138 -1.23801,10.757139 -1.23801,13 v 4.077931 h 30 30 z"
       style="display:inline;fill:#000000;stroke-width:1.33333337" />
    <path
       inkscape:label="Unedited Drone"
       inkscape:connector-curvature="0"
       id="path171"
       d="m 928.2415,1410.654 c -20.33219,-17.2135 -50.10085,-39.7593 -66.15257,-50.1018 -81.14501,-52.2845 -96.69194,-63.2421 -112.31417,-79.16 -10.9119,-11.1183 -19.29745,-24.503 -23.5784,-37.6351 -6.38762,-19.5941 -7.51768,-20.7062 -29.29307,-28.8317 -31.4587,-11.7386 -41.04449,-23.8705 -41.09241,-52.0072 l -0.0365,-22.1582 -27.48662,-24.8378 c -15.1177,-13.6608 -46.83433,-47.8072 -70.48144,-75.881 -23.64724,-28.0736 -60.29197,-69.71896 -81.43282,-92.54524 -22.16916,-23.93751 -38.43684,-44.81582 -38.43684,-49.33194 0,-7.69949 17.9671,-25.20024 23.70743,-23.09211 1.61392,0.59221 19.85076,15.08654 40.52611,32.2084 20.67547,17.12182 60.64731,45.73525 88.82635,63.5855 90.91478,57.59049 107.25678,73.43039 115.98186,112.41809 2.56354,11.4547 6.55505,20.3173 8.87016,19.6949 2.3151,-0.6226 62.43331,-59.8742 133.59596,-131.67036 L 978.83116,840.77009 v -89.3434 -89.34358 L 849.42302,532.71825 C 778.24858,461.56752 718.11443,403.35338 715.79144,403.35338 c -2.32289,0 -6.42399,10.06881 -9.11349,22.37513 -4.34698,19.88931 -7.78205,25.18516 -30.92037,47.66875 -15.7285,15.28345 -47.0431,38.28715 -79.1254,58.12526 -29.20247,18.05746 -71.84546,48.35837 -94.76233,67.33528 l -41.66701,34.50356 -11.13308,-10.66615 c -6.12325,-5.86642 -11.05684,-13.40307 -10.96382,-16.74801 0.0973,-3.34496 10.72754,-17.46392 23.63216,-31.37542 12.90462,-13.9115 48.4435,-54.18673 78.9756,-89.50051 30.53194,-35.31381 68.92816,-76.89739 85.32499,-92.40797 l 29.81232,-28.20095 v -24.8736 c 0,-31.85536 5.93185,-39.31018 38.54639,-48.44276 24.77171,-6.93642 24.95496,-7.09147 29.48641,-24.93819 8.65068,-34.06978 30.28571,-54.12155 114.43616,-106.06238 24.27214,-14.98162 62.58677,-42.5614 85.1437,-61.288417 22.55683,-18.727015 44.11519,-34.049116 47.90762,-34.049116 9.36072,0 23.22508,18.255432 20.13716,26.514775 -1.34929,3.608841 -18.61454,24.072478 -38.36731,45.474788 -19.75264,21.4023 -58.38841,65.1041 -85.85705,97.11502 -27.46862,32.01102 -60.74179,67.03297 -73.94045,77.82655 -13.19854,10.79369 -23.97837,20.50036 -23.95512,21.57048 0.0365,1.79474 194.8133,100.8379 204.94659,104.21569 2.47283,0.82447 4.49605,-1.15038 4.49605,-4.38759 0,-3.23746 10.06879,-16.33396 22.37524,-29.10335 18.609,-19.30939 26.3046,-24.35072 45.723,-29.95291 12.8413,-3.70465 31.2279,-7.61216 40.8589,-8.68323 9.631,-1.07134 20.7593,-4.78926 24.7294,-8.26252 10.3283,-9.03602 72.5181,-9.03602 82.8464,0 3.97,3.47326 15.0982,7.19142 24.7293,8.26252 9.631,1.07131 28.0176,4.97858 40.859,8.68323 19.4184,5.60219 27.1138,10.64352 45.723,29.95291 12.3065,12.76939 22.3753,25.86589 22.3753,29.10335 0,3.23747 2.0232,5.21182 4.4961,4.38759 10.1331,-3.37779 204.9075,-102.42095 204.9465,-104.21569 0.025,-1.07012 -10.7567,-10.77679 -23.9551,-21.57048 -13.1986,-10.79358 -46.472,-45.81553 -73.9404,-77.82655 -27.4687,-32.01092 -66.1045,-75.71272 -85.8571,-97.11502 -19.7528,-21.40231 -37.0183,-41.865947 -38.3674,-45.474788 -3.0879,-8.259343 10.7765,-26.514775 20.1373,-26.514775 3.7923,0 25.3507,15.322101 47.9075,34.049116 22.5569,18.727017 60.8715,46.306797 85.1437,61.288417 84.1505,51.94083 105.7855,71.9926 114.4362,106.06238 4.5313,17.84672 4.7145,18.00177 29.4863,24.93819 32.6146,9.13258 38.5464,16.5874 38.5464,48.44276 v 24.8736 l 29.8124,28.20095 c 16.3969,15.51058 54.793,57.09416 85.3249,92.40797 30.5322,35.31378 66.071,75.58901 78.9757,89.50051 12.9046,13.9115 23.5389,28.03046 23.632,31.37542 0.097,3.34494 -4.8404,10.88159 -10.9636,16.74801 l -11.1332,10.66615 -41.6671,-34.50356 c -22.9168,-18.97691 -65.5598,-49.27782 -94.7622,-67.33528 -32.0822,-19.83811 -63.3969,-42.84181 -79.1253,-58.12526 -23.1384,-22.48359 -26.5735,-27.77944 -30.9205,-47.66875 -2.6895,-12.30632 -6.8101,-22.37513 -9.1567,-22.37513 -2.3468,0 -62.4809,58.2336 -133.6316,129.40815 l -129.3648,129.40804 v 89.30027 89.30025 l 129.3865,130.53835 c 71.1627,71.79616 131.2809,131.04776 133.5961,131.67036 2.3149,0.6224 6.3065,-8.2402 8.8701,-19.6949 8.7251,-38.9877 25.0671,-54.8276 115.9818,-112.41809 28.1791,-17.85025 68.1509,-46.46368 88.8262,-63.5855 20.6756,-17.12186 38.9124,-31.61559 40.5263,-32.2084 5.7403,-2.10813 23.7075,15.39262 23.7075,23.09211 0,4.51612 -16.2678,25.39443 -38.4381,49.33194 -21.1409,22.82628 -57.7856,64.47164 -81.4328,92.54524 -23.6472,28.0738 -55.3638,62.2202 -70.4814,75.881 l -27.4866,24.8378 -0.036,22.1582 c -0.047,28.1367 -9.6337,40.2686 -41.0926,52.0072 -21.7754,8.1255 -22.9052,9.2376 -29.2929,28.8317 -4.2811,13.1321 -12.6665,26.5168 -23.5784,37.6351 -15.62,15.9157 -30.95,26.7212 -112.3143,79.1673 -16.0518,10.3467 -46.118,32.9794 -66.8143,50.2952 -20.6964,17.3157 -39.2155,31.4832 -41.1537,31.4832 -3.613,0 -17.1458,-13.7238 -22.0055,-22.3158 -1.6718,-2.9561 11.2541,-20.1747 33.594,-44.7501 19.9713,-21.9701 56.5429,-63.6223 81.2696,-92.5604 24.727,-28.9384 59.063,-65.6645 76.3024,-81.6139 l 31.3445,-28.999 -113.0551,-57.7695 -113.0554,-57.7695 H 1153.9398 995.66397 l -113.05525,57.7695 -113.05522,57.7695 31.34441,28.999 c 17.23941,15.9494 51.57552,52.6755 76.30235,81.6139 24.72695,28.9381 61.29826,70.5903 81.26963,92.5604 22.33999,24.5754 35.26601,41.794 33.59413,44.7501 -5.31688,9.4007 -18.54748,22.3128 -22.66767,22.1222 -2.30219,-0.11 -20.82125,-14.2771 -41.15343,-31.4903 z m -54.36684,-337.6477 c 58.79492,-30.8438 107.37468,-56.418 107.95532,-56.8312 0.57997,-0.4134 -0.13382,-25.67099 -1.58808,-56.12792 L 977.59853,904.6708 869.25639,1012.961 c -59.58802,59.5596 -108.34198,110.6368 -108.34198,113.5047 0,6.4515 -12.69314,12.4586 112.96025,-53.4594 z m 673.08774,53.1353 c 0,-2.6898 -48.7539,-53.621 -108.3418,-113.1806 l -108.3421,-108.2902 -2.6614,55.74983 c -1.4638,30.66245 -1.3028,56.23307 0.3575,56.82367 1.6604,0.591 50.2986,26.229 108.0848,56.9741 57.7862,30.7452 106.3791,56.1057 107.9844,56.3568 1.6051,0.2505 2.9185,-1.7441 2.9185,-4.4336 z M 1283.6816,964.67737 c 1.3916,-27.28793 2.5375,-113.05131 2.5462,-190.58529 l 0.012,-140.97103 10.0224,-6.56683 10.0225,-6.56688 -2.3682,-56.75695 c -4.0754,-97.68326 -21.7409,-136.0723 -68.8629,-149.64742 -12.0969,-3.48604 -29.8312,-6.33826 -39.406,-6.33826 -10.7269,0 -19.2677,-2.24031 -22.2527,-5.837 -6.3113,-7.60474 -32.6018,-7.60474 -38.9132,0 -2.985,3.59669 -11.5257,5.837 -22.2527,5.837 -31.1798,0 -59.7133,10.80852 -76.9761,29.15881 -20.7146,22.01932 -28.4989,52.77746 -31.7867,125.59562 -2.4791,54.90991 -2.4031,55.63602 6.8572,65.49008 l 9.3642,9.96471 2.4215,187.44611 c 1.332,103.09538 2.6453,187.88386 2.9186,188.41896 0.2736,0.5351 58.0128,0.9728 128.3102,0.9728 h 127.8133 z M 962.92243,509.6428 l 0.34053,-31.85259 -99.49139,-51.2241 c -54.72022,-28.17319 -100.60713,-50.10825 -101.97091,-48.74446 -1.36379,1.36366 42.09408,47.096 96.5729,101.62724 l 99.05238,99.14786 2.5777,-18.55068 c 1.41766,-10.20282 2.73098,-32.88426 2.91847,-50.40327 z M 1546.0854,377.83114 c -1.369,-1.36902 -47.2602,20.56178 -101.9805,48.73497 l -99.4915,51.2241 v 26.41762 c 0,14.52973 1.142,37.34775 2.5388,50.70678 l 2.5387,24.28919 99.4418,-99.44177 c 54.693,-54.69298 98.3216,-100.56188 96.9527,-101.93089 z"
       style="display:inline;fill:#000000;stroke-width:3.89132714" />
    <flowRoot
       xml:space="preserve"
       id="flowRoot4003"
       style="font-style:normal;font-weight:normal;font-size:40px;line-height:1.25;font-family:sans-serif;letter-spacing:0px;word-spacing:0px;fill:#000000;fill-opacity:1;stroke:none"
       transform="translate(7.9537438,8.0063582)"
       inkscape:label="Text - Talyz New Roman - IX Sthlm"><flowRegion
         id="flowRegion4005"><rect
           id="rect4007"
           width="1700.3127"
           height="389.07602"
           x="328.4408"
           y="1530.9933" /></flowRegion><flowPara
         id="flowPara4009"
         style="font-style:normal;font-variant:normal;font-weight:normal;font-stretch:normal;font-size:266.66665649px;font-family:'Talyz New Roman';-inkscape-font-specification:'Talyz New Roman, '">IX Sthlm</flowPara></flowRoot>    <g
       id="g238"
       inkscape:label="Modular Drone">
      <path
         inkscape:label="Unedited Drone - NoBlades"
         inkscape:connector-curvature="0"
         id="path115"
         d="m 684.80204,1208.8959 c -20.36903,-7.318 -33.09666,-20.8367 -37.32264,-39.6453 -8.12605,-36.1679 15.3095,-69.038 51.74041,-72.5686 10.52741,-1.0177 31.86087,-20.7699 141.31114,-130.82492 L 969.4428,836.23404 V 747.21823 658.2024 L 840.53095,529.7243 C 724.97189,414.55295 710.02709,400.96754 696.2454,398.56256 c -30.1707,-5.26309 -44.75083,-17.73265 -52.55461,-44.94468 -8.07153,-28.14495 11.35128,-60.88419 40.97193,-69.06235 29.45101,-8.1321 64.72368,11.01688 70.13458,38.07383 1.38483,6.92295 4.80512,11.88315 8.1939,11.88315 3.19857,0 49.86853,22.68074 103.70982,50.40162 53.84129,27.7209 98.98468,50.40163 100.31741,50.40163 1.33394,0 2.42437,-2.49343 2.42437,-5.54175 0,-3.04833 10.03186,-15.95042 22.29306,-28.6732 18.54064,-19.23863 26.20874,-24.26184 45.55534,-29.84358 12.7942,-3.69046 31.1133,-7.58326 40.709,-8.65066 9.5956,-1.06619 20.6828,-4.7724 24.6385,-8.23267 5.4656,-4.78209 15.3713,-6.29172 41.2712,-6.29172 25.8999,0 35.8058,1.50963 41.2712,6.29172 3.9559,3.46027 15.043,7.16527 24.6387,8.23267 9.5957,1.06619 27.9147,4.9602 40.709,8.65066 19.3464,5.58174 27.0145,10.60495 45.5552,29.84358 12.2613,12.72278 22.2931,25.62487 22.2931,28.6732 0,3.04832 1.0783,5.54175 2.3869,5.54175 1.3121,0 48.2025,-23.56154 104.1992,-52.35954 94.852,-48.78053 101.9749,-53.17128 104.186,-64.22329 5.3637,-26.81827 40.6981,-46.1817 69.6729,-38.18166 40.399,11.155 55.557,54.86265 31.6694,91.31902 -5.6228,8.58161 -40.7283,28.55204 -50.1919,28.55204 -2.2777,0 -62.1431,58.02001 -133.0324,128.93365 l -128.8901,128.93245 v 88.97341 88.9722 l 128.9119,129.62304 c 111.98,112.59922 130.6129,129.78782 141.8587,130.87462 31.1981,3.0144 52.6903,28.0396 52.1973,60.7776 -0.8725,58.009 -81.9633,75.972 -107.7917,23.8777 -7.393,-14.9108 -12.993,-18.3105 -120.1884,-72.9526 l -112.4346,-57.3126 H 1143.9099 986.88952 l -112.4344,57.3126 c -107.19553,54.6421 -112.79544,58.0418 -120.18849,72.9526 -12.69491,25.6043 -42.21985,37.2972 -69.46459,27.5089 z m 180.07192,-141.2784 c 58.57856,-30.7304 106.98109,-56.2099 107.55901,-56.6218 0.58156,-0.412 -0.13326,-25.5777 -1.58232,-55.92287 L 968.21668,899.90002 860.2724,1007.7934 c -59.36973,59.3407 -107.94429,110.2306 -107.94429,113.0875 0,6.4274 -12.64646,12.4125 112.54585,-53.2634 z m 670.61784,52.9411 c 0,-2.68 -48.5746,-53.4245 -107.9443,-112.7652 l -107.9443,-107.89338 -2.6521,55.54475 c -1.4575,30.54994 -1.2976,56.02703 0.3514,56.61583 1.655,0.5937 50.1144,26.1326 107.6886,56.7649 57.5741,30.6323 105.9888,55.8997 107.588,56.1505 1.5994,0.2545 2.9079,-1.7387 2.9079,-4.4174 z m -262.315,-160.87208 c 1.3872,-27.1878 2.5286,-112.63673 2.537,-189.8857 V 629.34747 l 9.9859,-6.54372 9.9846,-6.54252 -2.359,-56.54796 c -4.06,-97.3248 -21.6606,-135.5731 -68.6103,-149.09915 -12.0553,-3.47238 -29.7249,-6.31474 -39.2649,-6.31474 -10.6874,0 -19.1962,-2.23173 -22.1707,-5.81558 -6.288,-7.57719 -32.4823,-7.57719 -38.7705,0 -2.9744,3.58385 -11.4833,5.81558 -22.1706,5.81558 -31.0661,0 -59.4945,10.76849 -76.6941,29.05119 -20.638,21.93925 -28.39451,52.58489 -31.67058,125.13538 -2.46922,54.70877 -2.39413,55.43209 6.83198,65.2495 l 9.3304,9.92888 2.4122,186.75741 c 1.328,102.71753 2.6365,187.19476 2.9078,187.72796 0.2788,0.533 57.8008,0.9692 127.8396,0.9692 h 127.3441 z M 953.59537,506.32147 953.93461,474.58662 854.80817,423.55013 C 800.2884,395.4803 754.57074,373.62586 753.21135,374.98404 c -1.35818,1.35939 41.93996,46.92319 96.21863,101.25518 l 98.68905,98.78355 2.56855,-18.48262 c 1.41149,-10.16514 2.71999,-32.76348 2.90779,-50.21868 z M 1534.6183,374.99373 c -1.3642,-1.36422 -47.0868,20.48657 -101.6066,48.5564 l -99.1264,51.03649 v 26.32031 c 0,14.47593 1.1389,37.20998 2.5297,50.52036 l 2.5286,24.20005 99.0768,-99.07675 c 54.4931,-54.49192 97.9609,-100.19261 96.5979,-101.55686 z"
         style="display:inline;fill:#000000;stroke-width:3.87704802" />
      <path
         inkscape:label="Unedited Blade 1"
         inkscape:connector-curvature="0"
         id="path221"
         d="m 436.2014,608.09668 c -5.70377,-5.95217 -10.29331,-13.3321 -10.20166,-16.39984 0.12058,-3.06773 10.63818,-16.86409 23.43488,-30.65925 12.7967,-13.79516 48.02499,-53.73358 78.28511,-88.75207 30.26011,-35.01848 70.59165,-78.42981 89.62631,-96.46963 40.93327,-38.79647 87.8983,-100.47794 91.62444,-120.33501 5.74477,-30.6267 31.77469,-54.71516 113.89687,-105.40392 24.06917,-14.85633 62.06253,-42.20547 84.43143,-60.775867 22.3677,-18.570404 43.7466,-33.764371 47.5065,-33.764371 9.2767,0 23.02968,18.102526 19.9764,26.292801 -1.3337,3.57902 -19.2336,24.739627 -39.7792,47.024117 -20.5445,22.28448 -58.2436,65.00365 -83.77547,94.93094 -25.53069,29.92849 -56.4275,62.92111 -68.65743,73.31692 -25.02664,21.27396 -26.04439,22.37492 -60.5974,65.63552 -19.0419,23.84006 -26.1481,36.25208 -29.82721,52.0936 -4.14578,17.8505 -8.47606,24.35014 -30.56157,45.87854 -15.66185,15.26632 -46.33678,37.82335 -78.38278,57.63941 -28.95898,17.90597 -71.13189,47.85979 -93.71904,66.56405 -22.58716,18.70305 -41.48194,34.00675 -41.98962,34.00675 -0.50646,0 -5.588,-4.87051 -11.29056,-10.82269 z"
         style="fill:#000000;stroke-width:3.85878515" />
      <path
         style="fill:#000000;stroke-width:3.85878515"
         d="m 1858.1186,608.09668 c 5.7038,-5.95217 10.2933,-13.3321 10.2016,-16.39984 -0.1205,-3.06773 -10.6381,-16.86409 -23.4348,-30.65925 -12.7967,-13.79516 -48.025,-53.73358 -78.2851,-88.75207 -30.2602,-35.01848 -70.5917,-78.42981 -89.6264,-96.46963 -40.9332,-38.79647 -87.8983,-100.47794 -91.6244,-120.33501 -5.7448,-30.6267 -31.7747,-54.71516 -113.8969,-105.40392 -24.0691,-14.85633 -62.0625,-42.20547 -84.4314,-60.775867 -22.3677,-18.570404 -43.7466,-33.764371 -47.5065,-33.764371 -9.2767,0 -23.0297,18.102526 -19.9764,26.292801 1.3337,3.57902 19.2336,24.739627 39.7792,47.024117 20.5445,22.28448 58.2436,65.00365 83.7755,94.93094 25.5307,29.92849 56.4275,62.92111 68.6574,73.31692 25.0266,21.27396 26.0444,22.37492 60.5974,65.63552 19.0419,23.84006 26.1481,36.25208 29.8272,52.0936 4.1458,17.8505 8.4761,24.35014 30.5616,45.87854 15.6618,15.26632 46.3368,37.82335 78.3828,57.63941 28.9589,17.90597 71.1319,47.85979 93.719,66.56405 22.5872,18.70305 41.4819,34.00675 41.9896,34.00675 0.5065,0 5.588,-4.87051 11.2906,-10.82269 z"
         id="path233"
         inkscape:connector-curvature="0"
         inkscape:label="Unedited Blade 2" />
      <path
         style="fill:#000000;stroke-width:3.85878515"
         d="m 436.2014,883.67172 c -5.70377,5.95217 -10.29331,13.3321 -10.20166,16.39984 0.12058,3.06773 10.63818,16.86409 23.43488,30.65925 12.7967,13.79516 48.02499,53.73358 78.28511,88.75209 30.26011,35.0185 70.59165,78.4298 89.62631,96.4696 40.93327,38.7965 87.8983,100.4779 91.62444,120.335 5.74477,30.6267 31.77469,54.7152 113.89687,105.4039 24.06917,14.8564 62.06253,42.2055 84.43143,60.7759 22.3677,18.5704 43.7466,33.7644 47.5065,33.7644 9.2767,0 23.02968,-18.1026 19.9764,-26.2928 -1.3337,-3.579 -19.2336,-24.7397 -39.7792,-47.0241 -20.5445,-22.2845 -58.2436,-65.0037 -83.77547,-94.931 -25.53069,-29.9285 -56.4275,-62.9211 -68.65743,-73.3169 -25.02664,-21.274 -26.04439,-22.3749 -60.5974,-65.6355 -19.0419,-23.8401 -26.1481,-36.2521 -29.82721,-52.0936 -4.14578,-17.8505 -8.47606,-24.3502 -30.56157,-45.8786 -15.66185,-15.2663 -46.33678,-37.82331 -78.38278,-57.63937 -28.95898,-17.90597 -71.13189,-47.85979 -93.71904,-66.56405 -22.58716,-18.70305 -41.48194,-34.00675 -41.98962,-34.00675 -0.50646,0 -5.588,4.87051 -11.29056,10.82269 z"
         id="path240"
         inkscape:connector-curvature="0"
         inkscape:label="Unedited Blade 3" />
      <path
         inkscape:label="Unedited Blade 4"
         inkscape:connector-curvature="0"
         id="path242"
         d="m 1856.8553,883.67172 c 5.7038,5.95217 10.2933,13.3321 10.2017,16.39984 -0.1206,3.06773 -10.6382,16.86409 -23.4349,30.65925 -12.7967,13.79516 -48.025,53.73358 -78.2851,88.75209 -30.2601,35.0185 -70.5917,78.4298 -89.6263,96.4696 -40.9333,38.7965 -87.8983,100.4779 -91.6245,120.335 -5.7447,30.6267 -31.7747,54.7152 -113.8968,105.4039 -24.0692,14.8564 -62.0626,42.2055 -84.4315,60.7759 -22.3677,18.5704 -43.7466,33.7644 -47.5065,33.7644 -9.2767,0 -23.0296,-18.1026 -19.9764,-26.2928 1.3337,-3.579 19.2336,-24.7397 39.7792,-47.0241 20.5445,-22.2845 58.2436,-65.0037 83.7755,-94.931 25.5307,-29.9285 56.4275,-62.9211 68.6574,-73.3169 25.0267,-21.274 26.0444,-22.3749 60.5974,-65.6355 19.0419,-23.8401 26.1481,-36.2521 29.8272,-52.0936 4.1458,-17.8505 8.4761,-24.3502 30.5616,-45.8786 15.6619,-15.2663 46.3368,-37.82331 78.3828,-57.63937 28.959,-17.90597 71.1319,-47.85979 93.719,-66.56405 22.5872,-18.70305 41.482,-34.00675 41.9897,-34.00675 0.5064,0 5.588,4.87051 11.2905,10.82269 z"
         style="fill:#000000;stroke-width:3.85878515" />
    </g>
  </g>
  <g
     id="g3776"
     inkscape:label="Edited Items v7"
     transform="translate(-7.9543625,-8.006857)"
     style="display:inline"
     inkscape:export-xdpi="96"
     inkscape:export-ydpi="96">
    <path
       style="display:inline;fill:#000000;stroke-width:1.33333337"
       d="m 231.5,32.824219 c -12.64452,0.352302 -28.80558,-0.564819 -37.20508,11.005859 -7.73893,16.46376 -4.47533,35.391373 -9.2207,52.439453 -3.19016,3.345662 -8.3284,4.513159 -11.55078,8.150389 -7.69202,6.32191 -11.2265,16.51417 -9.70445,26.28707 -0.70948,68.38369 -2.0505,136.76309 -2.909,205.1472 -0.70099,47.07981 -1.41821,94.1594 -2.22054,141.23761 -7.78723,5.93968 -9.53149,16.47324 -8.25099,25.61434 -2.54394,85.34861 -5.08788,170.69721 -7.63182,256.04581 -8.70733,11.03774 -23.14222,20.3941 -23.36719,35.94922 -1.71125,6.71214 -6.94579,12.46938 -6.02734,19.84766 0.0421,10.15743 1.18054,20.43815 -1.1543,30.39258 0.38366,15.98683 -0.86488,31.88627 0.3086,47.81445 0.26256,5.25003 2.89506,10.11254 4.74023,14.68359 -0.56851,10.8511 11.41521,18.90706 21.46454,15.97529 11.78368,-0.30154 23.54918,-0.48096 35.28155,0.38214 0.10204,21.09553 0.13545,42.1915 0.0352,63.2871 5.16873,2.54346 11.02259,2.9011 16.68359,2.84766 0.22403,147.79756 0.44751,295.59506 0.67188,443.39256 3.50973,2.4261 7.84776,3.0434 12.01758,3.084 6.44873,26.676 9.51398,54.5471 19.62695,80.1191 8.30374,9.5628 26.85887,2.3837 26.375,-10.3339 5.90223,-23.0616 9.28498,-46.8605 16.1582,-69.5215 7.7113,-1.3147 13.33472,-9.4814 11.32798,-17.1387 0.0384,-143.0332 -0.0508,-286.3956 0.78921,-429.22265 7.79714,0.35388 17.54495,-5.0507 16.5332,-13.89844 -0.34632,-17.62448 -0.11679,-35.25265 -0.1621,-52.87891 18.02579,-0.277 36.05355,-0.39289 54.08007,-0.61132 3.16545,-6.97933 -0.37566,-16.03595 5.74024,-21.65821 4.54019,-17.74973 0.90378,-36.33036 2.13867,-54.16211 -1.55118,-9.52814 -2.23411,-19.07302 -1.04688,-28.54883 0.195,-8.07655 -2.62992,-15.83148 -5.80078,-23.01367 -0.64403,-10.0448 -5.76903,-19.23145 -13.6712,-25.39073 -6.38219,-5.41831 -12.23075,-13.02374 -10.63932,-21.85276 -2.21577,-88.3823 -5.23863,-176.7416 -7.7383,-265.11588 -4.98915,-1.56345 -10.3152,-6.59576 -7.87305,-12.22071 -1.76493,-119.04492 -3.5302,-238.08984 -5.29492,-357.13476 -6.30382,-6.53442 -13.10273,-12.68919 -20.83985,-17.492189 -4.85113,-17.020862 -1.38964,-35.884781 -9.17383,-52.15625 -7.82375,-11.819034 -23.74069,-11.179321 -36.23628,-11.135616 -2.0863,-0.0029 -4.17304,-0.08209 -6.25395,-0.215946 z m 3.39648,30.992187 c 4.25846,0.280712 8.58805,-0.571454 12.78516,0.433594 1.05238,9.054774 3.12408,18.712271 3.47266,27.394531 -11.42968,-0.0878 -22.93234,0.446755 -34.27735,-0.167969 1.334,-9.083717 1.57549,-19.120974 4.3418,-27.478515 4.55415,-0.187017 9.12379,-0.260079 13.67773,-0.181641 z m -21.95117,58.521484 c 17.54619,1.02604 35.40398,-1.0845 52.95508,1.00195 4.45315,0.52686 9.15661,3.6999 7.73828,8.77149 0.51414,51.86688 1.63702,103.7497 2.28142,155.62645 0.89272,59.11988 1.78602,118.23975 2.66194,177.35988 -29.14933,-2.64091 -58.57548,-1.28552 -87.70312,-0.18164 -3.70541,1.12345 0.041,-5.28143 -1.14475,-6.78675 1.89881,-110.50823 2.68602,-221.27604 5.48654,-331.6195 5.06079,-3.43117 11.61012,-4.21056 17.72461,-4.17188 z m 45.02149,372.01172 c 9.6985,0.44929 19.90927,-0.0312 28.58789,4.44727 1.84523,6.97985 -0.61377,14.31194 0.89335,21.39416 3.40281,83.25941 3.22348,166.78526 9.37618,249.8988 1.31971,4.04889 3.85592,7.56947 6.69336,10.69336 -46.27248,0.53093 -92.54858,0.19819 -138.82227,0.0547 6.75861,-7.77303 9.05013,-18.31441 8.21199,-28.36491 4.55288,-84.37518 4.78051,-168.98568 8.84075,-253.31868 5.81849,-5.41909 15.10309,-3.56707 22.3405,-4.38103 17.95987,-0.50213 35.91787,0.11013 53.87825,-0.42366 z M 146.61914,811.99414 c 34.43739,0.87171 69.09676,0.12887 103.61914,0.37532 24.20264,0.1397 48.49465,-0.35555 72.63867,0.28484 1.31025,3.05864 1.83576,5.99573 -2.86718,4.37149 -58.55468,-0.0473 -117.1096,0.12883 -175.66407,-0.0942 0.32239,-1.45506 -0.0239,-5.03433 2.27344,-4.9375 z m 4.1543,35.41406 c 57.39091,1.04623 114.79721,-0.55874 172.18554,0.73438 4.71274,5.13534 1.27316,12.38349 2.56594,18.57136 -0.17592,7.14477 1.09021,15.26368 -2.03664,21.66692 -1.69624,1.73114 -1.23205,6.59671 -4.85349,4.78455 -57.30398,-0.41474 -114.61019,0.15162 -171.91409,-0.2826 -3.10386,-4.73622 -4.91981,-10.06075 -3.9225,-15.7219 0.11252,-8.80554 -1.17014,-18.26597 1.29555,-26.657 1.59656,-3.22402 2.53632,-3.81901 6.67969,-3.09571 z m 83.32422,86.95703 c 10,0 20,0 30,0 0,8.44467 0,16.88933 0,25.33399 -20,0 -40,0 -60,0 0,-8.44466 0,-16.88932 0,-25.33399 10,0 20,0 30,0 z m 12.59961,55.58789 c 0.15479,119.70548 0.0222,240.10248 0.0664,360.06838 0,18.7812 0,37.5625 0,56.3437 -8.44401,0 -16.88802,0 -25.33203,0 0,-138.6803 0,-277.3606 0,-416.04098 8.4212,-0.081 16.87932,0.68949 25.26563,-0.3711 z"
       id="path3766"
       inkscape:connector-curvature="0"
       inkscape:label="Edited Pen" />
    <path
       id="path282"
       style="display:inline;fill:#000000;stroke-width:11.5640955"
       d="M 303.36914,0.00976563 C 275.76549,0.33823781 247.31667,13.565404 223.64648,29.570312 h 32.5586 c 33.1371,-14.138958 76.55217,-11.677389 108.82617,1.072266 57.59379,22.081665 108.09973,67.637012 127.71484,127.107422 20.60486,60.70056 10.61293,128.56135 -17.82812,185.04688 -34.41902,71.04392 -85.75647,131.95869 -137.18359,191.16406 -9.78643,10.99426 -19.65675,21.91388 -29.56641,32.79883 v 37.69335 C 359.64665,546.06509 409.61096,486.41333 453.55469,422.04492 486.88163,371.8895 518.02533,316.91048 522.97656,255.75195 529.11899,181.41423 497.50843,105.17867 441.52148,55.697266 403.8772,22.164369 354.48834,-0.52537082 303.36914,0.00976563 Z M 115.22852,784.75586 C 81.503597,826.66766 49.969333,870.48102 26.517578,918.98047 0.77534446,974.74545 -8.6069741,1039.599 9.0917969,1099.0801 c 12.8572601,44.5189 34.2138511,86.8679 61.3007811,124.4707 22.754367,31.7286 51.711932,58.5205 83.207032,81.5 10.19228,7.7358 20.6344,15.1424 31.30078,22.209 v -33.2793 c -11.11126,-8.185 -21.99918,-16.6642 -32.65625,-25.3848 C 108.45386,1232.5038 70.824374,1187.8197 48.195312,1135.4238 25.283663,1084.1485 18.41599,1025.6235 30.849609,970.71484 38.251021,936.33561 53.708629,903.8347 75.650391,876.35547 88.45617,859.09242 101.70423,842.17418 115.22852,825.47656 Z m 1816.21288,88.79102 c -16.2956,1.83519 -32.5379,4.10535 -48.6894,6.7246 -61.2199,10.41353 -120.358,30.01003 -177.5665,53.92383 -119.2294,48.47376 -233.8392,107.89369 -345.6718,171.45309 -126.108,72.5752 -245.786,156.9076 -378.12112,218.3067 -63.95347,29.8437 -131.04766,53.6659 -200.65235,66.1172 -73.82868,13.7901 -149.16042,17.2905 -224.1289,17.5488 -85.43982,-0.4696 -172.32749,-10.8568 -251.58789,-44.375 -12.91775,-5.3189 -25.5582,-11.2288 -37.94336,-17.6289 v 27.1894 c 18.7467,8.5105 37.94123,16.0236 57.5,22.459 78.48928,26.3354 161.50293,40.2507 244.36133,39.4141 78.09814,-0.7998 156.31837,-7.0986 232.88476,-22.959 91.61694,-18.5897 177.99513,-57.0079 260.00193,-101.1465 83.8071,-45.038 163.206,-97.5271 243.8008,-147.9394 76.1729,-47.5913 155.1543,-90.5506 235.1953,-131.2442 78.8119,-39.47 159.3987,-75.77724 242.709,-104.71872 47.9282,-15.54319 97.7194,-24.37226 147.9082,-28.375 z"
       transform="translate(7.9543625,8.006857)"
       inkscape:connector-curvature="0"
       inkscape:label="Edited Cable" />
    <g
       id="g258"
       inkscape:label="Modular Drone"
       style="display:inline">
      <path
         style="fill:#000000;stroke-width:3.85878515"
         d="m 1841.6855,883.49414 c -40.1945,33.52488 -81.545,65.8426 -126.1233,93.39618 -36.5341,23.62318 -74.4111,47.20268 -101.3239,82.12918 -7.9429,12.1871 -7.7599,27.5048 -15.252,40.0489 -12.3423,23.4534 -31.3457,42.4328 -47.0474,63.4728 -18.6577,22.8649 -43.1088,39.9136 -62.7849,61.7981 -44.3857,46.8922 -84.2231,97.8528 -128.6633,144.7049 -12.6653,13.8521 -25.4404,27.9901 -36.3052,43.1394 0.1641,7.722 6.5901,14.0152 12.7442,17.7109 5.8963,-0.8639 9.959,-6.3884 15.1695,-9.0028 30.3094,-22.0989 58.3325,-47.3684 89.8181,-67.9366 41.357,-28.2051 87.5474,-51.1856 121.7995,-88.2676 8.8556,-10.2668 13.5042,-23.2538 16.697,-36.1813 12.0582,-27.5633 32.1679,-50.4702 50.6582,-73.8292 30.0998,-35.0463 64.9574,-65.6701 95.3029,-100.4751 42.8299,-47.4809 84.2514,-96.22088 126.8991,-143.85697 2.5455,-3.56906 7.1365,-7.38668 6.976,-11.86251 -3.4085,-7.11244 -9.4189,-12.47375 -14.9863,-17.86719 -1.1927,0.95964 -2.3854,1.91928 -3.5782,2.87891 z"
         id="path248"
         inkscape:connector-curvature="0"
         inkscape:label="Blade 4" />
      <path
         style="fill:#000000;stroke-width:3.85878515"
         d="m 446.92578,881.49219 c -5.46018,5.45163 -11.76247,10.67778 -14.50586,18.13672 15.65772,24.16804 37.6472,43.00883 55.67024,65.37439 48.69569,55.7661 96.88914,112.0577 150.1652,163.5281 27.7511,29.8263 54.84428,61.1811 73.55953,97.6016 4.39032,12.7838 6.89652,26.6677 16.47931,36.931 19.43858,23.7752 46.20177,39.811 71.40604,56.7884 39.64717,25.038 79.24311,50.4618 114.97757,80.9751 13.01309,10.3958 26.13875,21.3878 40.8886,28.9655 6.64065,-2.0569 10.6607,-8.9786 13.31054,-14.916 0.67909,-6.9841 -7.14068,-10.4545 -10.15129,-15.8654 -34.44961,-40.3822 -71.3657,-78.5736 -105.38637,-119.3337 -28.55905,-33.5034 -57.69507,-66.7018 -91.47815,-95.0975 -22.41692,-21.8265 -40.97687,-47.1993 -59.84943,-72.0355 -9.14451,-13.0177 -14.90523,-28.0709 -18.28124,-43.5137 -8.22012,-20.1806 -26.61787,-33.3965 -42.23038,-47.5662 -43.61988,-34.89491 -93.99095,-60.78615 -137.7479,-95.76793 -19.0263,-14.55703 -37.28888,-30.07093 -55.95531,-45.07988 l -0.70553,0.70868 z"
         id="path246"
         inkscape:connector-curvature="0"
         inkscape:label="Blade 3" />
      <path
         style="fill:#000000;stroke-width:3.85878515"
         d="m 1338.8594,61.826172 c -7.1463,2.903081 -13.2711,10.44403 -13.2149,18.197266 4.4014,7.802002 11.5543,13.654571 16.8539,20.832022 39.6689,44.6006 79.8619,88.74179 118.4411,134.29688 22.2412,25.8185 46.0297,50.45415 71.9764,72.47454 22.3762,22.01085 41.1509,47.33986 59.9156,72.39369 8.7856,12.80659 14.5304,27.48753 17.7251,42.61615 8.1567,20.22341 26.6257,33.46919 42.2472,47.65311 43.4022,34.7185 93.183,60.35979 136.7032,94.93643 19.4222,14.77153 37.8607,30.78294 57.1102,45.76788 5.7635,-5.64606 12.3657,-11.08397 15.2793,-18.86914 -15.1586,-23.58502 -36.8189,-42.09405 -54.4037,-63.92647 -49.1329,-56.20963 -97.6838,-113.05131 -151.4283,-164.96191 -27.763,-29.83741 -54.8666,-61.20984 -73.584,-97.64873 -4.3711,-12.54361 -6.7271,-26.3654 -16.1153,-36.45478 -18.6679,-23.22489 -44.9464,-39.15693 -69.4089,-55.71186 -40.1215,-25.42406 -80.3995,-51.00855 -116.6323,-81.916954 -13.2626,-10.603351 -26.6154,-21.730748 -41.4646,-29.678124 z"
         id="path244"
         inkscape:connector-curvature="0"
         inkscape:label="Blade 2" />
      <path
         style="fill:#000000;stroke-width:3.85878515"
         d="m 955.48242,61.666016 c -28.57776,16.246924 -51.67943,40.227644 -78.66234,58.885594 -39.96414,29.90036 -84.33347,53.39994 -123.78691,83.99148 -13.34942,11.28931 -27.31219,23.52832 -34.38864,39.81433 -4.04496,11.98148 -6.82544,24.60623 -14.27214,35.11383 -17.6675,29.05442 -39.68546,55.26424 -62.73363,80.16431 -27.77705,28.76178 -56.77256,56.37068 -82.87297,86.71634 -40.40163,45.36944 -80.08277,91.38375 -120.42595,136.79654 -2.455,3.72418 -8.44265,8.43973 -4.02929,12.90625 3.53181,5.79645 8.62025,10.39725 13.45898,15.07226 39.62009,-32.59813 79.62752,-64.95803 123.27274,-92.09603 38.46266,-24.94834 79.06378,-49.25106 107.61789,-85.99381 8.12662,-12.35089 7.90281,-27.86692 15.52343,-40.54688 12.46945,-23.59709 31.64094,-42.68169 47.45006,-63.87324 18.98351,-23.03845 43.75041,-40.24393 63.53733,-62.51749 43.7054,-46.36638 83.14878,-96.69125 127.03765,-142.97756 12.79234,-13.99067 25.56448,-28.130396 36.6566,-43.506706 -0.1635,-7.725005 -6.8466,-14.699388 -13.38281,-17.949218 z"
         id="path269"
         inkscape:connector-curvature="0"
         inkscape:label="Blade 1" />
      <path
         style="display:inline;fill:#000000;stroke-width:3.87704802"
         d="m 1583.6387,286.74609 c -21.1064,0.45273 -43.6397,14.85734 -47.4942,36.69727 -5.9348,15.1012 -22.7357,20.78592 -35.4396,28.70284 -58.2712,31.47386 -117.3213,61.55609 -176.8787,90.4788 -6.6524,2.16287 -13.4469,-3.67272 -13.2422,-10.46875 -3.4193,-8.66875 -11.5344,-14.31558 -16.7207,-21.87695 -13.367,-15.64513 -30.8362,-29.05088 -51.3801,-33.12577 -18.1371,-5.19863 -37.9459,-5.09278 -55.5132,-12.6323 -7.5594,-4.49001 -15.6914,-8.48696 -24.7253,-8.04909 -15.7749,-0.85131 -32.2198,-0.55498 -48.106,1.30716 -8.9831,3.3 -16.6148,9.93115 -26.4278,11.06445 -24.8332,5.26894 -52.2654,6.42488 -73.3652,21.95703 -10.9066,8.12844 -19.37109,18.97133 -28.70435,28.75993 -4.48839,5.10107 -7.75778,11.09955 -9.5808,17.56234 -2.83992,5.84921 -11.0124,8.24155 -16.11646,3.80574 -66.5916,-31.7249 -130.6159,-68.74946 -198.26831,-98.13387 -10.65901,-2.51261 -14.1334,-14.21364 -16.22266,-23.53906 -12.4688,-29.25462 -55.56478,-38.30467 -78.46679,-16.08789 -15.91439,14.21795 -22.11929,38.86362 -12.42774,58.31836 7.06437,16.25641 23.66805,27.10243 41.13086,28.55078 18.42623,3.69319 30.98514,18.78565 44.64453,30.32422 36.07056,33.30276 70.02222,68.81235 105.19234,103.05239 44.0004,43.79488 87.92,87.67084 131.91704,131.46909 0,61.55599 0,123.11198 0,184.66797 -84.32554,83.58322 -166.05163,169.83462 -252.87695,250.85352 -9.47957,8.4994 -21.10959,15.0975 -34.03125,15.9746 -28.84203,6.6838 -45.05791,42.1981 -32.79883,68.8027 11.63866,27.398 49.70123,37.9154 73.8789,20.7598 9.57047,-5.8217 14.38256,-16.5255 20.15235,-25.7676 14.57312,-17.5706 37.02845,-25.0113 56.1007,-36.3568 59.21716,-30.774 118.62809,-61.478 178.53992,-90.6959 105.487,0 210.974,0 316.4609,0 72.9113,38.1459 147.5933,73.015 218.9747,114.0078 10.3735,6.7245 18.0284,16.8567 23.0996,27.9746 15.8658,22.3808 51.1681,25.4434 71.6699,7.5156 13.9198,-11.2734 19.8587,-30.4895 15.8281,-47.6679 -3.8608,-20.1594 -21.0328,-38.6415 -42.0488,-39.7344 -17.135,-2.5623 -28.4589,-17.1575 -41.1487,-27.4519 -31.2328,-29.0284 -60.7154,-59.8799 -91.1494,-89.73288 -49.3205,-49.41685 -98.4259,-99.04861 -147.7175,-148.49296 0,-61.52539 0,-123.05078 0,-184.57617 87.4715,-86.52509 172.7621,-175.29785 262.7304,-259.25781 8.8412,-5.48546 19.9331,-5.93345 28.2318,-12.51289 12.0531,-6.25102 24.8584,-14.40763 28.9889,-28.18242 8.1552,-19.93382 2.2546,-45.32268 -15.6582,-58.11524 -8.7994,-6.75913 -19.9158,-10.51603 -31.0312,-10.14844 z m -830.21878,80.15625 c 27.94089,8.65681 53.13027,24.41279 79.56523,36.58329 43.14789,21.77656 85.9443,44.24326 128.98555,66.23117 -0.13696,40.76817 -0.30411,81.90482 -8.56445,122.00781 -68.70537,-70.22506 -140.50756,-137.53549 -206.16211,-210.66602 -3.6755,-5.56325 -1.69256,-14.30569 6.17578,-14.15625 z m 781.43558,0.0586 c 8.253,0.24371 9.9569,12.17364 3.8131,16.50959 -65.0038,71.52326 -135.3293,137.90552 -203.0436,206.80095 -6.0827,-2.32741 -3.1815,-10.54813 -4.875,-15.36914 -3.9326,-34.10363 -5.9229,-68.49513 -4.5059,-102.82031 6.7807,-9.18966 19.0552,-10.73804 28.0512,-16.9181 58.9001,-29.71778 116.5798,-62.24954 177.4567,-87.87096 1.0147,-0.24867 2.0596,-0.36088 3.1035,-0.33203 z m -389.2969,17.80859 c 9.7503,-0.28011 19.0443,3.91211 26.623,9.63672 13.8931,3.70179 28.582,1.24097 42.4682,5.37161 26.1483,4.75252 52.33,19.2538 64.2232,43.97995 18.5146,34.55322 19.5813,74.85395 22.3397,113.0496 1.0487,21.20725 1.5746,42.437 2.6779,63.64181 -6.7286,4.41026 -13.4584,8.81887 -20.1875,13.22851 -0.5236,127.8248 2.0611,255.7822 -5.4707,383.46287 -88.3979,-0.6983 -176.927,1.4151 -265.2422,-1.498 -7.7494,-3.1018 -5.3676,-12.6659 -5.8418,-19.07229 -2.0592,-119.8672 -3.3517,-239.7456 -4.9707,-359.61914 -9.35694,-8.72151 -19.09486,-20.21155 -17.31892,-33.93164 0.18592,-41.62944 1.87006,-83.53837 9.68276,-124.50857 5.84356,-26.50473 20.39836,-52.55684 44.74366,-66.06955 21.7771,-13.08954 47.7328,-16.57883 72.705,-16.74219 8.6714,-2.47864 15.0313,-10.82724 24.6993,-10.45117 2.9431,-0.35177 5.9078,-0.44054 8.8691,-0.47852 z m 170.0605,499.83399 c 75.2955,76.50591 153.4769,150.27748 225.6309,229.80858 4.5446,5.7693 2.4056,14.8932 -4.4277,17.7813 -8.8056,3.1144 -16.0553,-5.3965 -23.6592,-8.0756 -67.6699,-34.6085 -134.2293,-71.3346 -201.7959,-106.1471 -6.1613,-12.936 -2.182,-27.59337 -3.1603,-41.28992 0.7927,-31.79519 3.0902,-63.52907 4.1759,-95.31359 1.0788,1.07877 2.1576,2.15755 3.2363,3.23633 z m -340.06246,1.3496 c 1.56414,42.51659 5.09259,84.97756 4.89258,127.54688 -8.5794,9.7982 -22.08419,12.4307 -32.60716,19.4898 -63.77394,33.1223 -126.71638,67.9402 -191.37136,99.3012 -7.1357,2.3228 -15.37245,-5.4485 -11.88086,-12.6465 3.84862,-11.0834 14.61072,-17.3698 21.37001,-26.4651 67.97816,-72.3647 139.66102,-141.10348 209.37804,-211.76729 0.0729,1.51367 0.14583,3.02734 0.21875,4.54101 z"
         id="path117"
         inkscape:connector-curvature="0"
         inkscape:label="Edited Drone - NoBlades" />
    </g>
    <g
       aria-label="IX Sthlm"
       transform="matrix(1.1325645,0,0,1.1325645,-350.00351,-142.12179)"
       style="font-style:normal;font-weight:normal;font-size:40px;line-height:1.25;font-family:sans-serif;letter-spacing:0px;word-spacing:0px;display:inline;fill:#000000;fill-opacity:1;stroke:none"
       id="flowRoot4040"
       inkscape:label="Text - Talyz New Roman - IX Sthlm - Paths">
      <path
         d="m 1808.3538,1649.3941 q 9.8667,-8 25.0667,2.6667 11.2,8 11.2,18.4 0,4.5333 2.4,4.5333 3.2,-0.5333 13.0667,-9.0666 9.0666,-7.7334 16.8,-9.0667 8,-1.3333 20.2666,2.9333 9.3334,3.4667 12.8,12.5334 3.7334,8.8 3.7334,29.0666 0,22.4 2.6666,37.6 2.9334,17.0667 -2.1333,21.3334 -5.0667,4 -16.8,-5.6 -6.9333,-6.1334 -9.6,-15.4667 -2.6667,-9.6 -2.6667,-29.3333 0,-18.9334 -1.8666,-22.1334 -1.6,-2.4 -6.4,1.6 -4.8,3.7334 -10.6667,11.7334 -5.8667,7.7333 -9.8667,16.5333 -6.1333,12.5333 -10.6666,14.6667 -4.5334,1.8666 -14.4,-4.2667 -5.3334,-3.2 -9.0667,-12.2667 -3.7333,-9.0666 -3.7333,-18.9333 0,-4 -1.8667,-4.5333 -1.8667,-0.8 -4.5333,2.6666 -4.2667,5.3334 -12,22.1334 -7.4667,16.5333 -8.8,23.2 -1.3334,6.4 -6.9334,8 -5.6,1.3333 -13.0666,-2.6667 -9.3334,-4.8 -12.2667,-15.4667 -2.6667,-10.6666 -2.6667,-41.8666 0,-36.5334 1.6,-38.9334 1.3334,-2.1333 11.4667,-2.4 10.1333,-0.2666 14.6667,1.6 4.2666,1.6 6.1333,7.4667 1.8667,5.8667 -0.5333,10.1333 -2.4,4.8 -0.8,4.8 3.2,-0.5333 8,-8.5333 5.3333,-8.2667 11.4666,-13.0667 z"
         style="font-style:normal;font-variant:normal;font-weight:normal;font-stretch:normal;font-size:266.66665649px;font-family:'Talyz New Roman';-inkscape-font-specification:'Talyz New Roman, '"
         id="path4062"
         inkscape:connector-curvature="0"
         inkscape:label="m" />
      <path
         d="m 1663.0872,1601.1275 q -1.8667,-5.6 3.4666,-11.2 5.3334,-5.8667 8.5334,-5.8667 2.6666,0 9.3333,4 6.6667,4 8.8,6.6667 1.6,2.4 0.2667,29.6 -1.0667,26.9333 -3.4667,44.8 -1.8667,12.5333 -1.3333,45.8666 0.5333,33.0667 2.6666,38.4 1.3334,3.7334 -2.4,11.2 -3.4666,7.4667 -6.6666,7.4667 -8,0 -13.0667,-9.8667 -5.0667,-9.8666 -6.4,-27.2 -1.0667,-15.7333 -1.0667,-50.1333 0,-34.6667 1.0667,-36.5333 1.6,-2.4 1.6,-22.4 0,-20.2667 -1.3333,-24.8 z"
         style="font-style:normal;font-variant:normal;font-weight:normal;font-stretch:normal;font-size:266.66665649px;font-family:'Talyz New Roman';-inkscape-font-specification:'Talyz New Roman, '"
         id="path4060"
         inkscape:connector-curvature="0"
         inkscape:label="l" />
      <path
         d="m 1466.808,1588.0608 q 1.3334,-0.8 4.8,-0.5333 3.7334,0 7.4667,0.5333 4,0.5333 8,1.6 4,1.0667 6.1333,2.1333 2.9334,1.6 3.2,10.4 0.5334,8.5334 -0.8,49.3334 l -1.6,57.6 8,-7.4667 q 8,-7.4667 16.8,-12.8 6.6667,-4 9.3334,-4 2.9333,-0.2667 11.7333,2.6667 11.4667,4 14.9333,11.4666 3.7334,7.2 5.3334,30.4 1.6,22.4 3.7333,25.3334 2.1333,2.9333 1.6,9.6 -0.8,6.1333 -5.8667,7.4666 -4.8,1.0667 -11.4666,-3.4666 -2.9334,-1.8667 -4.8,-4 -1.8667,-2.1334 -3.4667,-5.6 -1.6,-3.7334 -2.6667,-8.5334 -1.0666,-4.8 -2.4,-13.0666 -2.4,-15.7334 -3.7333,-17.8667 -1.6,-2.4 -9.6,5.3333 -7.7333,7.4667 -14.9333,17.6 -7.2,10.1334 -7.2,14.1334 0,3.7333 -5.3334,8.5333 -5.3333,4.8 -9.3333,4.8 -4,0 -11.4667,-6.4 -5.6,-4.5333 -6.4,-7.4667 -0.8,-2.9333 0.2667,-14.4 2.4,-24 2.4,-73.3333 0,-49.3333 -2.6667,-57.8667 -5.8666,-19.7333 0,-22.1333 z"
         style="font-style:normal;font-variant:normal;font-weight:normal;font-stretch:normal;font-size:266.66665649px;font-family:'Talyz New Roman';-inkscape-font-specification:'Talyz New Roman, '"
         id="path4058"
         inkscape:connector-curvature="0"
         inkscape:label="h" />
      <path
         d="m 1313.9956,1577.3941 q 6.1333,-9.3333 20.8,-0.2666 8,4.8 7.7333,10.9333 0,5.8667 -7.7333,19.2 -5.6,9.0667 -14.1334,32.2667 -8.5333,22.9333 -8.5333,28 0,2.6666 13.8667,1.3333 29.0666,-3.2 40,-3.2 11.2,-0.2667 17.0666,2.6667 6.9334,3.7333 7.2,8.5333 0.2667,4.5333 -5.8666,9.3333 -4.5334,3.4667 -13.0667,5.8667 -8.5333,2.1333 -40,8.2667 -16.5333,2.9333 -20,4.5333 -3.2,1.6 -4.8,7.4667 -2.4,7.7333 0.2667,13.0666 2.9333,5.0667 3.7333,10.4 1.0667,8.8 4.5333,8.8 4.2667,0 17.6,-13.6 22.1334,-22.9333 22.1334,-12.5333 0,1.0667 0.5333,2.1333 0.8,0.8 1.8667,1.6 1.3333,0.8 2.6666,1.3334 4,1.3333 3.7334,5.0666 0,3.4667 -4.5334,14.9334 -7.2,19.2 -22.1333,28.5333 -7.2,4.5333 -15.7333,4.5333 -8.5334,0 -16.2667,-3.7333 -7.7333,-4 -14.4,-10.4 -6.4,-6.4 -10.4,-15.4667 -3.7333,-9.3333 -3.7333,-18.9333 0,-7.4667 -1.0667,-11.2 -0.8,-4 -2.9333,-5.3333 -1.8667,-1.3334 -5.0667,-0.2667 -5.6,1.6 -13.0667,-1.6 -7.2,-3.4667 -11.7333,-9.6 -4.5333,-6.1333 -2.9333,-10.9333 1.6,-5.0667 6.4,-7.2 4.8,-2.1334 18.1333,-3.7334 7.2,-0.8 9.8667,-1.6 2.9333,-0.8 4,-2.1333 1.3333,-1.3333 2.1333,-4.2667 1.3333,-6.4 8.2667,-25.3333 6.9333,-19.2 8.5333,-27.4667 1.0667,-6.1333 6.6667,-19.4666 5.8666,-13.3334 10.4,-20.5334 z"
         style="font-style:normal;font-variant:normal;font-weight:normal;font-stretch:normal;font-size:266.66665649px;font-family:'Talyz New Roman';-inkscape-font-specification:'Talyz New Roman, '"
         id="path4056"
         inkscape:connector-curvature="0"
         inkscape:label="t" />
      <path
         d="m 1123.8039,1570.9941 q 17.6,-5.3333 27.2,1.6 9.6,6.6667 2.9333,20.2667 -1.3333,2.6667 -6.1333,6.4 -4.8,3.7333 -10.1334,6.4 -5.3333,2.6667 -8.5333,2.6667 -3.2,0 -15.4667,11.4666 -12,11.2 -16.5333,18.6667 -8.2667,13.3333 -0.5333,14.4 3.2,0.5333 12.8,2.1333 9.6,1.6 17.6,4.8 8,3.2 8.5333,3.2 1.3333,-0.5333 8.5333,3.7334 7.4667,4 11.4667,7.4666 18.4,16.8 22.4,24.5334 4.2667,7.7333 1.6,20.8 -1.8667,8.5333 -2.1333,10.9333 -0.2667,2.1333 -4,10.4 -3.7334,8.2667 -5.0667,12.8 -2.4,7.7333 -17.0667,14.9333 -14.4,6.9334 -31.2,9.0667 -16.8,1.8667 -31.2,-2.4 -4,-1.6 -10.9333,-8.2667 -6.9333,-6.9333 -6.4,-10.6666 0.8,-5.3334 12.2667,-10.9334 11.7333,-5.6 28,-8.5333 6.4,-1.0667 14.1333,-7.4667 7.7333,-6.6666 10.4,-13.3333 3.2,-7.7333 3.2,-8.2667 0,-0.8 -7.7333,-5.8666 -13.3334,-8.2667 -33.0667,-10.6667 -9.6,-1.0667 -22.6667,-7.4667 -12.8,-6.6666 -19.2,-13.3333 -5.0666,-5.3333 -7.4666,-14.4 -2.1334,-9.0667 -0.2667,-16.5333 1.6,-6.1334 19.7333,-25.6 18.1334,-19.4667 29.3334,-26.9334 12.8,-8.8 14.1333,-10.9333 1.3333,-2.1333 11.4667,-5.0667 z"
         style="font-style:normal;font-variant:normal;font-weight:normal;font-stretch:normal;font-size:266.66665649px;font-family:'Talyz New Roman';-inkscape-font-specification:'Talyz New Roman, '"
         id="path4054"
         inkscape:connector-curvature="0"
         inkscape:label="S" />
      <path
         d="m 679.65389,1580.8608 q 13.06667,-2.4 20.8,0.5333 7.73333,2.9334 7.73333,10.4 0,10.6667 -17.86666,21.8667 -2.13334,1.3333 -5.6,4.2667 -3.2,2.9333 -6.93334,6.4 -3.46666,3.4666 -7.2,7.4666 -3.73333,4 -6.66666,8 -15.46667,18.9334 -18.93334,23.2 -2.13333,2.6667 -1.06666,6.9334 1.33333,4 8,17.0666 27.2,50.9334 39.46666,69.6 12.26667,18.4 26.93334,29.3334 12.53333,9.0666 19.19999,15.4666 l 6.93334,6.4 -5.6,5.8667 q -3.46667,3.7333 -6.13334,4.5333 -2.66666,0.8 -7.99999,0 -8.26667,-1.6 -17.6,-7.7333 -12.53334,-7.7333 -27.2,-24 -14.66667,-16.2667 -14.66667,-22.1333 0,-2.6667 -7.73333,-12.5334 -7.73334,-9.8666 -9.6,-13.3333 -1.6,-3.4667 -7.73333,-13.0667 -5.86667,-9.6 -10.66667,-18.6666 -3.73333,-6.9334 -5.06667,-7.4667 -1.06666,-0.8 -4.26666,2.6667 -4.26667,4.5333 -13.33334,22.4 -6.93333,13.6 -13.6,22.1333 -6.4,8.5333 -9.86666,8.5333 -2.66667,0 -10.66667,-6.9333 -6.93333,-6.1333 -6.4,-11.7333 0.53333,-5.6 9.6,-17.3334 7.73333,-10.1333 9.06667,-14.1333 1.6,-4 11.2,-19.7333 9.6,-16 9.6,-20.5334 0,-5.3333 -16.53334,-25.0666 -16.26666,-20 -22.66666,-22.6667 -2.93334,-1.0667 -6.93334,-4.2667 -3.73333,-3.2 -5.86666,-6.4 -3.73333,-5.6 -4,-7.7333 -0.26667,-2.1333 2.4,-6.1333 3.46667,-5.6 11.46666,-6.6667 8,-1.0667 16.26667,3.2 4.53333,2.1333 12.8,10.1333 8.26667,8 15.73333,17.0667 7.46667,9.0667 9.6,13.8667 3.2,7.2 7.46667,5.8666 4.26667,-1.6 11.46667,-12 5.6,-8.2666 14.39999,-18.1333 9.06667,-10.1333 17.06667,-17.0667 8,-6.9333 11.2,-7.7333 z"
         style="font-style:normal;font-variant:normal;font-weight:normal;font-stretch:normal;font-size:266.66665649px;font-family:'Talyz New Roman';-inkscape-font-specification:'Talyz New Roman, '"
         id="path4052"
         inkscape:connector-curvature="0"
         inkscape:label="X" />
      <path
         d="m 422.30807,1576.0608 q 9.6,-12.2667 24.26667,1.8667 l 8.53333,8 -1.06667,34.1333 q -1.6,48.5333 -5.06667,69.8667 -1.59999,9.0666 -0.79999,32 1.06666,22.6666 3.19999,30.9333 3.2,12 0.26667,17.6 -3.73333,7.2 -14.13333,3.4667 -10.13333,-4 -16.26667,-14.9334 -2.13333,-4.2666 -5.6,-22.9333 -3.2,-18.9333 -2.13333,-20.8 1.06667,-1.8667 2.4,-21.8667 1.33333,-20 2.93333,-34.4 1.06667,-12 0.8,-40 0,-28.2666 -1.33333,-32.8 -1.06667,-3.7333 4,-10.1333 z"
         style="font-style:normal;font-variant:normal;font-weight:normal;font-stretch:normal;font-size:266.66665649px;font-family:'Talyz New Roman';-inkscape-font-specification:'Talyz New Roman, '"
         id="path4050"
         inkscape:connector-curvature="0"
         inkscape:label="I" />
    </g>
  </g>
</svg>
