<svg xmlns="http://www.w3.org/2000/svg" width="2180.402" height="1909.547"><path d="M223.546 24.818c-12.644.352-28.805-.565-37.205 11.006-7.739 16.463-4.475 35.391-9.22 52.44-3.19 3.345-8.329 4.512-11.551 8.15-7.692 6.321-11.227 16.514-9.705 26.287-.71 68.383-2.05 136.763-2.909 205.147-.7 47.08-1.418 94.16-2.22 141.237-7.788 5.94-9.532 16.474-8.251 25.615l-7.632 256.046c-8.707 11.037-23.142 20.394-23.367 35.949-1.712 6.712-6.946 12.47-6.028 19.847.042 10.158 1.18 20.439-1.154 30.393.384 15.987-.865 31.886.309 47.815.262 5.25 2.895 10.112 4.74 14.683-.569 10.851 11.415 18.907 21.464 15.975 11.784-.301 23.55-.48 35.282.383.102 21.095.135 42.191.035 63.287 5.169 2.543 11.023 2.9 16.684 2.847l.672 443.393c3.51 2.426 7.847 3.043 12.017 3.084 6.449 26.676 9.514 54.547 19.627 80.119 8.304 9.563 26.86 2.384 26.375-10.334 5.902-23.062 9.285-46.86 16.158-69.521 7.712-1.315 13.335-9.482 11.328-17.14.039-143.032-.05-286.395.79-429.222 7.797.354 17.545-5.05 16.533-13.898-.347-17.625-.117-35.253-.162-52.88 18.025-.276 36.053-.392 54.08-.61 3.165-6.98-.376-16.036 5.74-21.659 4.54-17.75.904-36.33 2.139-54.162-1.552-9.528-2.234-19.073-1.047-28.549.195-8.076-2.63-15.831-5.801-23.013-.644-10.045-5.769-19.232-13.671-25.391-6.382-5.418-12.231-13.024-10.64-21.853-2.215-88.382-5.238-176.741-7.738-265.116-4.989-1.563-10.315-6.595-7.873-12.22l-5.295-357.135c-6.304-6.535-13.103-12.69-20.84-17.492-4.85-17.021-1.39-35.885-9.173-52.157-7.824-11.819-23.741-11.179-36.237-11.135a99.616 99.616 0 0 1-6.254-.216zm3.397 30.992c4.258.28 8.588-.571 12.785.434 1.052 9.054 3.124 18.712 3.473 27.394-11.43-.088-22.933.447-34.278-.168 1.334-9.084 1.576-19.12 4.342-27.478 4.554-.187 9.124-.26 13.678-.182zm-21.951 58.522c17.546 1.026 35.404-1.085 52.955 1.001 4.453.527 9.156 3.7 7.738 8.772.514 51.867 1.637 103.75 2.281 155.626.893 59.12 1.786 118.24 2.662 177.36-29.149-2.64-58.575-1.285-87.703-.181-3.705 1.123.041-5.282-1.145-6.787 1.9-110.508 2.686-221.276 5.487-331.62 5.06-3.43 11.61-4.21 17.725-4.171zm45.021 372.011c9.699.45 19.91-.03 28.588 4.448 1.845 6.98-.614 14.311.893 21.394 3.403 83.26 3.224 166.785 9.376 249.898 1.32 4.05 3.856 7.57 6.694 10.694-46.273.53-92.549.198-138.822.055 6.758-7.773 9.05-18.315 8.212-28.365 4.552-84.376 4.78-168.986 8.84-253.319 5.819-5.42 15.103-3.567 22.34-4.381 17.96-.502 35.919.11 53.88-.424zM138.665 803.988c34.438.871 69.097.129 103.62.375 24.202.14 48.494-.355 72.638.285 1.31 3.059 1.836 5.996-2.867 4.371-58.555-.047-117.11.13-175.664-.094.322-1.455-.024-5.034 2.273-4.937zm4.155 35.414c57.39 1.046 114.797-.559 172.185.734 4.713 5.136 1.273 12.384 2.566 18.572-.176 7.144 1.09 15.263-2.036 21.667-1.697 1.73-1.233 6.596-4.854 4.784-57.304-.415-114.61.152-171.914-.283-3.104-4.736-4.92-10.06-3.923-15.721.113-8.806-1.17-18.266 1.296-26.657 1.597-3.224 2.536-3.82 6.68-3.096zm83.324 86.957h30v25.334h-60v-25.334h30zm12.6 55.588c.154 119.705.022 240.102.066 360.068v56.344h-25.332V982.318c8.421-.081 16.88.69 25.266-.371z"/><path d="M303.369.01c-31.445.373-63.99 17.483-89.313 36.372 12.495 9.393 25.652 3.105 38.293-5.08 33.564-16.057 79.142-13.91 112.682-.66 57.593 22.082 108.1 67.637 127.714 127.108 20.605 60.7 10.613 128.56-17.828 185.046-34.419 71.044-85.756 131.96-137.183 191.164-14.968 16.816-30.12 33.468-45.334 50.065.42.956.793 1.916 1.123 2.644 1.624 3.58 6.74 10.346 2.965 11.42.021 1.073.031 2.146.023 3.22.093.333.177.669.242 1.009.668 3.487.827 7.594-.27 11.03-.023.736-.071 1.465-.24 3.525-.017.21.052.79-.085.628a111.556 111.556 0 0 1-4.47-5.587c-.89 1.585-1.823 3.145-2.644 4.644-.176.322.37-.635.553-.953-.08.225-.152.455-.244.676-.335.8-1.56 3.815-2.416 5.674.051.534.106 1.185.162 1.818l.223.287c.013-.085.022-.21.037-.277.036-.158.05.147.062.406l.14.18c.079.1-.031.304-.15.351-.092.037.028-.2.022-.3a20.018 20.018 0 0 1-.012-.231l-.1-.129c-.046.302-.084.65-.115 1.05.06.973.086 1.914.008 2.618-.015.14-.033.27-.048.408 58.83-65.984 116.488-132.998 166.388-206.092 33.327-50.155 64.47-105.134 69.422-166.293 6.142-74.337-25.468-150.573-81.455-200.054C403.877 22.164 354.488-.526 303.369.009zM296.46 598.1c-.133.037-.312.093-.449.132 0 .398-.017.81-.059 1.246l.282.897c.15-.612.244-1.278.242-2.04 0-.083-.014-.154-.016-.236zm-1.986.587l-.26.076c.436 1.052.888 2.097 1.334 3.145l.002-.006-1.076-3.215zm1.076 3.215l.014.043.025.06c.241-.395.434-.837.578-1.328l-.234-1.031a21.07 21.07 0 0 1-.383 2.256zm.014.043l-.016-.037c-.019.085-.036.172-.056.26.033-.05.062-.105.093-.157l-.021-.066zm.941.217c-.002.08 0 .161-.002.242 0 .024-.036.8-.078 1.568.223.516.433 1.037.658 1.551.145.331-.04-.721-.058-1.082l-.52-2.28zm-9.79 2.494c-.035.081-.065.157-.1.24.087.005.17.006.257.01-.049-.08-.11-.171-.158-.25zm-.694 2.867c-.424 2.416-.96 4.82-1.54 7.22 1.859-1.522 2.253-3.995 1.991-6.646l-.451-.574zm.894 14.478c-.177.385-.33.69-.462.94l.402.518c.03-.487.055-.973.06-1.458zm-135.04 118.436a1664.225 1664.225 0 0 0-10.217 12.201C98.295 804.354 56.019 857.968 26.517 918.98.775 974.745-8.608 1039.598 9.091 1099.08c12.857 44.518 34.214 86.867 61.301 124.47 22.754 31.729 51.712 58.52 83.207 81.5a599.984 599.984 0 0 0 42.174 29.246c-.077-.373-.138-.643-.23-1.12-.09-.464-.021-.944-.042-1.415-.023-.52-.085-1.041-.138-1.562-.657-1.022-.769-1.19-1.723-3.012-.022-.041-.04-.172-.008-.139.4.393.81.779 1.209 1.174-.903-2.438-1.486-4.987-2.244-7.476.048-.106.092-.213.139-.319-.067-.657.013-1.02.359-.816.206-.471.415-.94.646-1.399.126-.248.318-.458.477-.687.025-.01.062 0 .076-.017.318-.487.588-1.005.908-1.49.284-.43 1.045-1.398 1.377-1.827.452-.607.884-1.23 1.354-1.824.182-.23.405-.424.6-.644.396-.45.786-.906 1.177-1.36-.152-.808-.225-1.582-.332-2.468-.03-.337-.11-.673-.09-1.01.05-.8.136-1.596.239-2.39-16.232-11.351-31.99-23.385-47.284-35.9-43.79-36.092-81.42-80.775-104.048-133.171-22.912-51.275-29.78-109.8-17.346-164.71 7.401-34.378 22.859-66.88 44.8-94.359 16.744-22.571 34.226-44.568 52.122-66.23a53.89 53.89 0 0 1 1.01-3.979l.006-.035c-.181.477-.316.848-.528 1.395.134-.557.393-1.376.697-2.254.07-.38.128-.586.196-.523.273-.764.556-1.532.824-2.19.332-1.126 1.17-3.438 2.018-5.603.147-.57.422-1.216.763-1.9.095-.23.161-.368.246-.565.26-2.002 1.305-3.45 2.946-4.442.07-.094.138-.177.209-.271 1.03-1.554 2.156-3.215 3.304-4.711.758-2.726 2.527-4.951 4.63-6.934.087-.235.23-.564.357-.869-.203.148-.403.298-.612.438-.643.43.276-.63 1.088-1.586.329-.74.642-1.413.73-1.574.854-1.562 1.47-2.577 2.048-3.405-.019-.052-.035-.105-.055-.156-.454-1.189-.982-2.356-1.276-3.598-.288-1.627-.42-2.113-.466-3.056-.681-3.77 1.522-8.661 2.54-11.264.266-.678.515-1.362.772-2.043.123-.432.882-3.102.965-3.414.632-2.367 1.175-4.755 1.691-7.148zm-15.926 49.592a46.32 46.32 0 0 0-2.237 3.295c-.008.044-.011.076-.023.133.05-.071.084-.132.137-.206.102-.183.206-.381.306-.52.538-.735 1.183-1.706 1.864-2.731l-.047.029zm-2.123 3.222c-.05.09-.099.155-.149.254-.04.185-.094.4-.18.713.68-.534 1.495-1.319 2.354-2.183.39-.564.792-1.103 1.19-1.616-.1-.112-.2-.234-.3-.341.1-.151.25-.423.376-.635-.022.009-.046.016-.067.025-1.255 1.344-2.44 2.696-3.224 3.783zm-.149.254l.012-.048c-.328.47-.574.877-.715 1.205a7.8 7.8 0 0 0-.031.68c.24-.707.486-1.344.734-1.837zm.035-.181c.111-.63-.22.015-.709 1.146-.005.04-.013.077-.017.117.22-.41.462-.831.726-1.263zm-3.736 9.215c-.1.34-.204.69-.182.736a12.2 12.2 0 0 1 .229-.483c.249-.688.473-1.298.654-1.798-.165.284-.421.858-.701 1.545zm.047.253l-.15.413c.037-.047.072-.089.142-.215.167-.304.301-.622.424-.946-.142.224-.28.475-.416.748zm.416-.748c.107-.168.214-.339.324-.474.022-.106.05-.21.07-.317.061-.328.053-.452.004-.449-.12.42-.245.836-.398 1.24zm.324-.474a25.74 25.74 0 0 1-.637 2.482c.306-.475.602-.992.897-1.513.006-.677.05-1.182.142-1.413-.132.143-.27.28-.394.432-.003.004-.005.01-.008.012zm.26.969c-.003.294.024.712.037 1.076.066-.097.132-.193.203-.303l.004-.008.002-.008c.056-.519.123-1.03.197-1.541-.146.267-.295.522-.443.783zm.037 1.076c-.554.805-.958 1.204-1.232 1.326-.472 1.418-.983 2.825-1.461 4.242-.018.12-.02.144-.04.27l1.067-1.29c.57-1.44 1.125-2.886 1.674-4.335l-.008-.213zm-2.732 5.838l.029-.243c-.038.112-.069.225-.106.336.026-.03.05-.063.077-.093zm.824-4.725c-.064.18-.134.347-.196.523-.028.157-.059.324-.101.61a1.1 1.1 0 0 1 .04-.104c.104-.332.201-.663.311-.98-.02-.024-.038-.034-.054-.049zm20.197-46.91c-1.095 1.112-2.186 2.245-3.35 3.015 1.054.137 2.108.262 3.163.391.018-1.14.059-2.277.187-3.406zm3.52 3.84l-.02.008.018.002c0-.004 0-.006.002-.01zm-4.584 12.334l-.282.254c-.07.25-.147.496-.218.746.14-.112.277-.22.418-.33.025-.221.056-.45.082-.67zm-2.358 2.09a30.43 30.43 0 0 1-.652.533c-.217.388-.342.594-.502.867.298-.266.612-.515.918-.774.076-.244.156-.434.236-.626zm1.838 1.845c-.166.162-.329.306-.488.47.152-.116.313-.248.46-.356.003-.007.008-.01.01-.016.006-.033.013-.065.018-.098zm-.027.114a1.024 1.024 0 0 0-.043.234.152.152 0 0 1 .013-.01c.013-.077.028-.154.04-.23l-.01.005zm-.043.234l-.143.103c.047-.032.096-.06.143-.091v-.012zm0 .021c-.175.198-.348.398-.524.594l.147-.07.336-.229c.013-.083.028-.166.04-.25v-.045zm-.524.594l-.193.094-.15.168.279-.19.064-.072zm-.193.094l.473-.527c-.237.164-.473.33-.686.521-.05.087-.05.134.088.066l.125-.06zm-2.662 1.162c-.209.042-1.48 1.24-1.844 1.684.406-.294.795-.497 1.166-.596l.088-.055c.196-.304.397-.604.578-.916.053-.09.052-.125.012-.117zm-8.83 13.402c-.065.188-.2.524-.32.83.02-.028.042-.055.062-.084.077-.218.201-.583.258-.746zm-.89.332c-.421.568-.83 1.12-1.23 1.694l.07.023c.301-.452.748-1.113 1.16-1.717zm-2.737 4.035c-.28.534-.48 1.107-.656 1.69.206-.518.424-.997.662-1.453-.01-.074-.005-.157-.006-.237zm-2.592 6.928c-.091.245-.208.549-.309.815.02-.031.034-.066.059-.094.156-.18.308-.38.459-.58a.49.49 0 0 1-.209-.14zm1888.385 63.61c-45.143-.006-90.365 4.596-134.9 11.818-61.22 10.413-120.358 30.01-177.567 53.924-119.23 48.474-233.84 107.894-345.672 171.453-126.108 72.575-245.786 156.908-378.121 218.307-63.953 29.843-131.048 53.665-200.652 66.117-73.829 13.79-149.16 17.29-224.13 17.549-85.439-.47-172.327-10.857-251.587-44.375-17.949-7.39-35.371-15.907-52.3-25.32-.047.532-.044.475-.1 1.126-.054.731-.095 1.464-.163 2.194-.023.252-.094.499-.11.752-.048.71-.01 1.427-.081 2.136-.08.798-.241 1.587-.37 2.38-1.015 6.289-.604 3.878-2 10.784-.282 1.386-.608 2.763-.847 4.157a37.74 37.74 0 0 0-.367 2.61c24.522 12.18 49.887 22.643 75.895 31.2 78.489 26.336 161.502 40.25 244.36 39.414 78.099-.8 156.32-7.098 232.886-22.959 91.617-18.59 177.995-57.008 260.002-101.146 83.807-45.038 163.206-97.527 243.8-147.94 76.173-47.59 155.155-90.55 235.196-131.244 78.812-39.47 159.398-75.777 242.709-104.719 71.253-23.107 146.623-31.39 221.297-31.007 41.71.811 83.69 4.486 124.181 14.906 17.037 4.442 34.076 10.996 51.39 13.154-.311-9.083-2.56-18.773-10.046-24.787-23.34-17.777-53.594-22.034-81.941-26.397-23.492-2.817-47.116-4.084-70.762-4.087zm-1817.737 436.31c.031.06.051.134.094.182.002-.026.012-.08.014-.108l-.108-.074zm1.149 15.373c-1.54.38-2.975.996-3.963 1.645-.583.383-1.004.952-1.316 1.605l.046.076c1.88-.694 3.7-1.884 5.559-2.76a1.337 1.337 0 0 0-.137-.36c-.069-.122-.012.278-.02.417-.053-.208-.115-.415-.17-.623zm-3.498 12.637c.299.294.617.554.965.746-.326-.22-.647-.47-.965-.746z"/><path d="M1833.732 875.488c-40.195 33.525-81.545 65.842-126.124 93.396-36.534 23.623-74.41 47.203-101.323 82.13-7.943 12.186-7.76 27.504-15.252 40.048-12.343 23.453-31.346 42.433-47.048 63.473-18.658 22.865-43.109 39.913-62.785 61.798-44.385 46.892-84.223 97.853-128.663 144.705-12.665 13.852-25.44 27.99-36.305 43.14.164 7.721 6.59 14.014 12.744 17.71 5.896-.864 9.959-6.388 15.17-9.003 30.309-22.099 58.332-47.368 89.818-67.936 41.357-28.205 87.547-51.186 121.8-88.268 8.855-10.267 13.503-23.254 16.696-36.181 12.058-27.563 32.168-50.47 50.658-73.83 30.1-35.046 64.958-65.67 95.303-100.474 42.83-47.481 84.252-96.221 126.9-143.857 2.545-3.57 7.136-7.387 6.975-11.863-3.408-7.112-9.419-12.474-14.986-17.867l-3.578 2.879zM438.972 873.486c-5.46 5.451-11.762 10.678-14.506 18.137 15.658 24.168 37.647 43.008 55.67 65.374 48.696 55.766 96.89 112.058 150.166 163.528 27.75 29.826 54.844 61.181 73.56 97.602 4.39 12.783 6.896 26.667 16.478 36.93 19.439 23.776 46.202 39.812 71.406 56.789 39.648 25.038 79.244 50.462 114.978 80.975 13.013 10.396 26.139 21.388 40.889 28.966 6.64-2.057 10.66-8.979 13.31-14.916.68-6.984-7.14-10.455-10.151-15.866-34.45-40.382-71.366-78.573-105.386-119.333-28.56-33.504-57.696-66.702-91.479-95.098-22.417-21.826-40.976-47.2-59.849-72.035-9.145-13.018-14.905-28.071-18.281-43.514-8.22-20.18-26.618-33.397-42.23-47.566-43.62-34.895-93.992-60.787-137.749-95.768-19.026-14.557-37.288-30.071-55.955-45.08l-.705.709zM1330.906 53.82c-7.147 2.903-13.271 10.444-13.215 18.197 4.401 7.802 11.554 13.655 16.854 20.832 39.669 44.6 79.862 88.742 118.44 134.297 22.242 25.818 46.03 50.454 71.977 72.475 22.376 22.01 41.151 47.34 59.916 72.393 8.785 12.807 14.53 27.488 17.725 42.616 8.157 20.224 26.626 33.47 42.247 47.653 43.402 34.719 93.183 60.36 136.703 94.937 19.422 14.771 37.861 30.783 57.11 45.768 5.764-5.646 12.366-11.084 15.28-18.87-15.159-23.584-36.82-42.093-54.404-63.926-49.133-56.21-97.684-113.051-151.428-164.962-27.763-29.837-54.867-61.21-73.584-97.648-4.371-12.544-6.727-26.366-16.116-36.455-18.667-23.225-44.946-39.157-69.408-55.712-40.122-25.424-80.4-51.009-116.633-81.917-13.262-10.603-26.615-21.73-41.464-29.678zM947.529 53.66c-28.578 16.247-51.68 40.227-78.663 58.885-39.964 29.9-84.333 53.4-123.787 83.992-13.349 11.289-27.312 23.528-34.388 39.814-4.045 11.982-6.826 24.606-14.272 35.114-17.668 29.054-39.686 55.264-62.734 80.164-27.777 28.762-56.773 56.37-82.873 86.717-40.402 45.369-80.083 91.383-120.426 136.796-2.455 3.724-8.443 8.44-4.03 12.906 3.533 5.797 8.621 10.398 13.46 15.073 39.62-32.599 79.627-64.958 123.273-92.096 38.462-24.949 79.063-49.251 107.617-85.994 8.127-12.351 7.903-27.867 15.524-40.547 12.47-23.597 31.64-42.682 47.45-63.873 18.983-23.039 43.75-40.244 63.537-62.518 43.706-46.366 83.149-96.691 127.038-142.977 12.792-13.991 25.564-28.13 36.656-43.507-.163-7.725-6.846-14.7-13.382-17.95z"/><path d="M1575.685 278.74c-21.106.452-43.64 14.857-47.494 36.697-5.935 15.101-22.736 20.786-35.44 28.703-58.271 31.474-117.321 61.556-176.879 90.479-6.652 2.163-13.446-3.673-13.242-10.47-3.419-8.668-11.534-14.315-16.72-21.876-13.367-15.645-30.837-29.05-51.38-33.126-18.138-5.198-37.946-5.093-55.514-12.632-7.56-4.49-15.691-8.487-24.725-8.05-15.775-.85-32.22-.554-48.106 1.308-8.983 3.3-16.615 9.931-26.428 11.064-24.833 5.27-52.265 6.425-73.365 21.957-10.907 8.129-19.371 18.972-28.704 28.76a45.15 45.15 0 0 0-9.581 17.563c-2.84 5.849-11.013 8.241-16.117 3.805-66.591-31.724-130.616-68.749-198.268-98.133-10.659-2.513-14.133-14.214-16.223-23.54-12.468-29.254-55.564-38.304-78.466-16.087-15.915 14.218-22.12 38.863-12.428 58.318 7.064 16.256 23.668 27.102 41.13 28.55 18.427 3.694 30.986 18.786 44.645 30.325 36.07 33.303 70.022 68.812 105.193 103.052 44 43.795 87.92 87.671 131.917 131.47v184.667c-84.326 83.584-166.052 169.835-252.877 250.854-9.48 8.5-21.11 15.097-34.032 15.975-28.842 6.683-45.057 42.198-32.798 68.802 11.638 27.398 49.7 37.916 73.878 20.76 9.571-5.822 14.383-16.525 20.153-25.768 14.573-17.57 37.028-25.01 56.1-36.356 59.218-30.774 118.629-61.478 178.54-90.696h316.461c72.912 38.146 147.594 73.015 218.975 114.008 10.374 6.724 18.028 16.856 23.1 27.974 15.865 22.38 51.168 25.444 71.67 7.516 13.92-11.274 19.858-30.49 15.828-47.668-3.861-20.16-21.033-38.642-42.05-39.735-17.134-2.562-28.458-17.157-41.148-27.451-31.233-29.029-60.715-59.88-91.15-89.733-49.32-49.417-98.425-99.049-147.717-148.493V646.957c87.472-86.526 172.762-175.298 262.73-259.258 8.842-5.486 19.934-5.934 28.232-12.513 12.054-6.251 24.859-14.408 28.99-28.183 8.155-19.933 2.254-45.322-15.659-58.115-8.8-6.759-19.916-10.516-31.031-10.148zm-830.219 80.156c27.941 8.657 53.13 24.413 79.565 36.583 43.148 21.777 85.945 44.244 128.986 66.231-.137 40.769-.304 81.905-8.564 122.008-68.706-70.225-140.508-137.535-206.163-210.666-3.675-5.563-1.692-14.305 6.176-14.156zm781.436.059c8.253.243 9.957 12.173 3.813 16.51-65.004 71.522-135.33 137.905-203.044 206.8-6.082-2.327-3.181-10.548-4.875-15.369-3.932-34.104-5.923-68.495-4.506-102.82 6.781-9.19 19.056-10.738 28.052-16.918 58.9-29.718 116.58-62.25 177.456-87.871a11.69 11.69 0 0 1 3.104-.332zm-389.297 17.808c9.75-.28 19.044 3.912 26.623 9.637 13.893 3.702 28.582 1.24 42.468 5.372 26.148 4.752 52.33 19.253 64.223 43.98 18.515 34.553 19.582 74.853 22.34 113.05 1.049 21.206 1.575 42.436 2.678 63.64-6.729 4.411-13.459 8.82-20.188 13.23-.523 127.824 2.061 255.782-5.47 383.462-88.398-.698-176.927 1.415-265.243-1.498-7.749-3.102-5.367-12.666-5.841-19.072-2.06-119.867-3.352-239.746-4.971-359.62-9.357-8.72-19.095-20.21-17.319-33.93.186-41.63 1.87-83.54 9.683-124.51 5.843-26.504 20.398-52.556 44.743-66.069 21.778-13.09 47.733-16.579 72.705-16.742 8.672-2.479 15.032-10.827 24.7-10.451 2.943-.352 5.908-.44 8.869-.479zm170.06 499.834c75.296 76.506 153.477 150.278 225.631 229.809 4.545 5.769 2.406 14.893-4.427 17.781-8.806 3.114-16.056-5.396-23.66-8.076-67.67-34.608-134.229-71.334-201.796-106.147-6.16-12.936-2.182-27.593-3.16-41.29.793-31.795 3.09-63.529 4.176-95.313l3.236 3.236zm-340.062 1.35c1.564 42.516 5.092 84.977 4.892 127.547-8.579 9.798-22.084 12.43-32.607 19.49-63.774 33.122-126.716 67.94-191.371 99.3-7.136 2.323-15.372-5.448-11.88-12.646 3.848-11.083 14.61-17.37 21.37-26.465 67.977-72.365 139.66-141.103 209.377-211.767l.219 4.54z"/><g aria-label="IX Sthlm" style="line-height:1.25" font-weight="400" font-size="266.667" font-family="Talyz New Roman" letter-spacing="0" word-spacing="0"><path d="M1690.12 1717.917q11.175-9.06 28.39 3.02 12.684 9.06 12.684 20.84 0 5.134 2.719 5.134 3.624-.604 14.798-10.269 10.269-8.758 19.028-10.268 9.06-1.51 22.953 3.322 10.57 3.926 14.497 14.195 4.228 9.966 4.228 32.92 0 25.369 3.02 42.584 3.322 19.329-2.416 24.161-5.738 4.53-19.027-6.342-7.853-6.947-10.873-17.517-3.02-10.873-3.02-33.222 0-21.443-2.114-25.067-1.812-2.719-7.248 1.812-5.437 4.228-12.081 13.288-6.645 8.759-11.175 18.725-6.946 14.195-12.08 16.611-5.135 2.115-16.31-4.832-6.04-3.624-10.268-13.893-4.228-10.268-4.228-21.443 0-4.53-2.114-5.134-2.115-.906-5.135 3.02-4.832 6.04-13.59 25.068-8.457 18.725-9.967 26.275-1.51 7.248-7.852 9.06-6.343 1.51-14.8-3.02-10.57-5.436-13.892-17.517-3.02-12.08-3.02-47.416 0-41.377 1.812-44.095 1.51-2.416 12.987-2.718 11.476-.302 16.61 1.812 4.833 1.812 6.947 8.457 2.114 6.644-.604 11.476-2.718 5.436-.906 5.436 3.624-.604 9.06-9.664 6.04-9.363 12.987-14.799zM1525.596 1663.252q-2.114-6.342 3.926-12.685 6.04-6.644 9.665-6.644 3.02 0 10.57 4.53 7.551 4.53 9.967 7.55 1.812 2.719.302 33.525-1.208 30.503-3.926 50.738-2.114 14.195-1.51 51.947.604 37.45 3.02 43.49 1.51 4.23-2.718 12.685-3.926 8.457-7.55 8.457-9.061 0-14.8-11.175-5.738-11.174-7.248-30.805-1.208-17.82-1.208-56.78 0-39.262 1.208-41.376 1.812-2.718 1.812-25.37 0-22.953-1.51-28.087zM1303.297 1648.453q1.51-.906 5.437-.604 4.228 0 8.456.604 4.53.604 9.06 1.812 4.531 1.208 6.947 2.416 3.322 1.812 3.624 11.779.604 9.665-.906 55.873l-1.812 65.236 9.06-8.457q9.061-8.456 19.028-14.496 7.55-4.53 10.57-4.53 3.323-.303 13.29 3.02 12.986 4.53 16.912 12.986 4.228 8.155 6.04 34.43 1.813 25.37 4.229 28.692 2.416 3.322 1.812 10.873-.906 6.946-6.645 8.456-5.436 1.208-12.986-3.926-3.323-2.114-5.437-4.53-2.114-2.417-3.926-6.343-1.812-4.228-3.02-9.664-1.208-5.437-2.718-14.8-2.718-17.818-4.228-20.234-1.813-2.719-10.873 6.04-8.758 8.456-16.913 19.933-8.154 11.477-8.154 16.007 0 4.228-6.04 9.665-6.041 5.436-10.571 5.436-4.53 0-12.987-7.249-6.343-5.134-7.249-8.456-.906-3.322.302-16.309 2.719-27.182 2.719-83.055 0-55.873-3.02-65.537-6.645-22.35 0-25.068zM1130.228 1636.372q6.946-10.57 23.557-.302 9.06 5.437 8.758 12.383 0 6.645-8.758 21.745-6.343 10.269-16.007 36.544-9.665 25.974-9.665 31.712 0 3.02 15.705 1.51 32.92-3.624 45.303-3.624 12.685-.302 19.329 3.02 7.852 4.229 8.154 9.665.302 5.134-6.644 10.57-5.134 3.927-14.799 6.645-9.664 2.416-45.302 9.362-18.725 3.323-22.652 5.135-3.624 1.812-5.436 8.456-2.718 8.759.302 14.799 3.322 5.738 4.228 11.779 1.208 9.966 5.135 9.966 4.832 0 19.933-15.403 25.067-25.973 25.067-14.194 0 1.208.604 2.416.906.906 2.114 1.812 1.51.906 3.02 1.51 4.53 1.51 4.229 5.738 0 3.926-5.135 16.913-8.154 21.745-25.067 32.316-8.155 5.134-17.819 5.134-9.665 0-18.423-4.228-8.759-4.53-16.309-11.779-7.248-7.248-11.779-17.517-4.228-10.57-4.228-21.443 0-8.456-1.208-12.685-.906-4.53-3.322-6.04-2.114-1.51-5.739-.302-6.342 1.812-14.798-1.812-8.155-3.926-13.29-10.873-5.133-6.946-3.321-12.382 1.812-5.739 7.248-8.155 5.436-2.416 20.537-4.228 8.155-.906 11.175-1.812 3.322-.906 4.53-2.416 1.51-1.51 2.416-4.833 1.51-7.248 9.363-28.691 7.852-21.745 9.664-31.108 1.208-6.946 7.55-22.047 6.645-15.101 11.78-23.256zM914.823 1629.124q19.933-6.04 30.806 1.812 10.873 7.55 3.322 22.953-1.51 3.02-6.946 7.249-5.437 4.228-11.477 7.248-6.04 3.02-9.665 3.02-3.624 0-17.517 12.987-13.59 12.685-18.725 21.141-9.362 15.101-.604 16.31l14.497 2.415q10.873 1.813 19.933 5.437 9.06 3.624 9.665 3.624 1.51-.604 9.664 4.228 8.457 4.53 12.987 8.457 20.84 19.027 25.37 27.785 4.832 8.759 1.812 23.558-2.114 9.664-2.416 12.382-.302 2.416-4.53 11.779-4.229 9.363-5.739 14.497-2.718 8.758-19.33 16.913-16.308 7.852-35.335 10.268-19.027 2.115-35.336-2.718-4.53-1.812-12.383-9.362-7.852-7.853-7.248-12.081.906-6.04 13.893-12.383 13.288-6.342 31.711-9.664 7.249-1.208 16.007-8.457 8.759-7.55 11.779-15.1 3.624-8.76 3.624-9.363 0-.906-8.758-6.644-15.101-9.363-37.45-12.081-10.873-1.208-25.672-8.457-14.497-7.55-21.745-15.1-5.738-6.04-8.457-16.31-2.416-10.268-.302-18.725 1.812-6.946 22.35-28.993 20.537-22.047 33.221-30.504 14.497-9.967 16.007-12.383 1.51-2.416 12.987-5.738zM411.795 1640.299q14.798-2.718 23.557.604 8.758 3.322 8.758 11.778 0 12.081-20.235 24.766-2.416 1.51-6.342 4.832-3.624 3.322-7.853 7.249-3.926 3.926-8.154 8.456-4.228 4.53-7.55 9.06-17.517 21.444-21.444 26.276-2.416 3.02-1.208 7.852 1.51 4.53 9.06 19.33 30.807 57.685 44.7 78.826 13.892 20.84 30.503 33.222 14.195 10.268 21.745 17.517l7.853 7.248-6.343 6.645q-3.926 4.228-6.946 5.134-3.02.906-9.06 0-9.363-1.812-19.934-8.759-14.194-8.758-30.805-27.181-16.611-18.423-16.611-25.067 0-3.02-8.759-14.195-8.758-11.175-10.872-15.101-1.813-3.926-8.759-14.799-6.644-10.873-12.08-21.141-4.229-7.853-5.739-8.457-1.208-.906-4.832 3.02-4.832 5.135-15.101 25.37-7.853 15.403-15.403 25.067-7.248 9.665-11.175 9.665-3.02 0-12.08-7.853-7.853-6.946-7.249-13.288.604-6.343 10.873-19.631 8.758-11.477 10.269-16.007 1.812-4.53 12.684-22.35 10.873-18.12 10.873-23.255 0-6.04-18.725-28.39-18.423-22.65-25.672-25.671-3.322-1.208-7.852-4.832-4.228-3.625-6.644-7.249-4.229-6.342-4.53-8.758-.303-2.416 2.717-6.947 3.927-6.342 12.987-7.55 9.06-1.208 18.423 3.624 5.134 2.416 14.497 11.477 9.363 9.06 17.819 19.329 8.457 10.269 10.873 15.705 3.624 8.154 8.456 6.644 4.832-1.812 12.987-13.59 6.342-9.363 16.309-20.538 10.268-11.476 19.329-19.329 9.06-7.852 12.685-8.758zM120.334 1634.862q10.872-13.892 27.483 2.115l9.665 9.06-1.208 38.658q-1.812 54.967-5.738 79.129-1.813 10.268-.906 36.242 1.208 25.671 3.624 35.034 3.624 13.59.302 19.933-4.228 8.154-16.007 3.926-11.477-4.53-18.423-16.913-2.416-4.832-6.343-25.973-3.624-21.443-2.416-23.558 1.208-2.114 2.718-24.765t3.323-38.96q1.208-13.591.906-45.303 0-32.014-1.51-37.148-1.208-4.228 4.53-11.477z" style="-inkscape-font-specification:'Talyz New Roman, '"/></g></svg>