<?xml version="1.0" encoding="UTF-8" standalone="no"?>
<!-- Created with Inkscape (http://www.inkscape.org/) -->

<svg
   xmlns:dc="http://purl.org/dc/elements/1.1/"
   xmlns:cc="http://creativecommons.org/ns#"
   xmlns:rdf="http://www.w3.org/1999/02/22-rdf-syntax-ns#"
   xmlns:svg="http://www.w3.org/2000/svg"
   xmlns="http://www.w3.org/2000/svg"
   xmlns:sodipodi="http://sodipodi.sourceforge.net/DTD/sodipodi-0.dtd"
   xmlns:inkscape="http://www.inkscape.org/namespaces/inkscape"
   version="1.1"
   id="svg77"
   viewBox="0 0 2180 1909"
   sodipodi:docname="ix-drone-logo.svg"
   inkscape:version="0.92.4 (5da689c313, 2019-01-14)"
   inkscape:label="Unedited Objects">
  <title
     id="title3868">IX Drone Logo</title>
  <metadata
     id="metadata83">
    <rdf:RDF>
      <cc:Work
         rdf:about="">
        <dc:format>image/svg+xml</dc:format>
        <dc:type
           rdf:resource="http://purl.org/dc/dcmitype/StillImage" />
        <dc:title>IX Drone Logo</dc:title>
      </cc:Work>
    </rdf:RDF>
  </metadata>
  <defs
     id="defs81" />
  <sodipodi:namedview
     pagecolor="#ffffff"
     bordercolor="#666666"
     borderopacity="1"
     objecttolerance="10"
     gridtolerance="10"
     guidetolerance="10"
     inkscape:pageopacity="0"
     inkscape:pageshadow="2"
     inkscape:window-width="1920"
     inkscape:window-height="1046"
     id="namedview79"
     showgrid="false"
     inkscape:zoom="0.2798796"
     inkscape:cx="701.37951"
     inkscape:cy="911.40346"
     inkscape:window-x="0"
     inkscape:window-y="0"
     inkscape:window-maximized="0"
     inkscape:current-layer="g3776" />
  <g
     id="g3776"
     inkscape:label="Edited Items v7"
     transform="translate(-7.9537438,-8.0063582)"
     style="display:inline"
     inkscape:export-xdpi="96"
     inkscape:export-ydpi="96">
    <path
       style="display:inline;fill:#000000;stroke-width:1.33333337"
       d="m 231.5,32.824219 c -12.64452,0.352302 -28.80558,-0.564819 -37.20508,11.005859 -7.73893,16.46376 -4.47533,35.391373 -9.2207,52.439453 -3.19016,3.345662 -8.3284,4.513159 -11.55078,8.150389 -7.69202,6.32191 -11.2265,16.51417 -9.70445,26.28707 -0.70948,68.38369 -2.0505,136.76309 -2.909,205.1472 -0.70099,47.07981 -1.41821,94.1594 -2.22054,141.23761 -7.78723,5.93968 -9.53149,16.47324 -8.25099,25.61434 -2.54394,85.34861 -5.08788,170.69721 -7.63182,256.04581 -8.70733,11.03774 -23.14222,20.3941 -23.36719,35.94922 -1.71125,6.71214 -6.94579,12.46938 -6.02734,19.84766 0.0421,10.15743 1.18054,20.43815 -1.1543,30.39258 0.38366,15.98683 -0.86488,31.88627 0.3086,47.81445 0.26256,5.25003 2.89506,10.11254 4.74023,14.68359 -0.56851,10.8511 11.41521,18.90706 21.46454,15.97529 11.78368,-0.30154 23.54918,-0.48096 35.28155,0.38214 0.10204,21.09553 0.13545,42.1915 0.0352,63.2871 5.16873,2.54346 11.02259,2.9011 16.68359,2.84766 0.22403,147.79756 0.44751,295.59506 0.67188,443.39256 3.50973,2.4261 7.84776,3.0434 12.01758,3.084 6.44873,26.676 9.51398,54.5471 19.62695,80.1191 8.30374,9.5628 26.85887,2.3837 26.375,-10.3339 5.90223,-23.0616 9.28498,-46.8605 16.1582,-69.5215 7.7113,-1.3147 13.33472,-9.4814 11.32798,-17.1387 0.0384,-143.0332 -0.0508,-286.3956 0.78921,-429.22265 7.79714,0.35388 17.54495,-5.0507 16.5332,-13.89844 -0.34632,-17.62448 -0.11679,-35.25265 -0.1621,-52.87891 18.02579,-0.277 36.05355,-0.39289 54.08007,-0.61132 3.16545,-6.97933 -0.37566,-16.03595 5.74024,-21.65821 4.54019,-17.74973 0.90378,-36.33036 2.13867,-54.16211 -1.55118,-9.52814 -2.23411,-19.07302 -1.04688,-28.54883 0.195,-8.07655 -2.62992,-15.83148 -5.80078,-23.01367 -0.64403,-10.0448 -5.76903,-19.23145 -13.6712,-25.39073 -6.38219,-5.41831 -12.23075,-13.02374 -10.63932,-21.85276 -2.21577,-88.3823 -5.23863,-176.7416 -7.7383,-265.11588 -4.98915,-1.56345 -10.3152,-6.59576 -7.87305,-12.22071 -1.76493,-119.04492 -3.5302,-238.08984 -5.29492,-357.13476 -6.30382,-6.53442 -13.10273,-12.68919 -20.83985,-17.492189 -4.85113,-17.020862 -1.38964,-35.884781 -9.17383,-52.15625 -7.82375,-11.819034 -23.74069,-11.179321 -36.23628,-11.135616 -2.0863,-0.0029 -4.17304,-0.08209 -6.25395,-0.215946 z m 3.39648,30.992187 c 4.25846,0.280712 8.58805,-0.571454 12.78516,0.433594 1.05238,9.054774 3.12408,18.712271 3.47266,27.394531 -11.42968,-0.0878 -22.93234,0.446755 -34.27735,-0.167969 1.334,-9.083717 1.57549,-19.120974 4.3418,-27.478515 4.55415,-0.187017 9.12379,-0.260079 13.67773,-0.181641 z m -21.95117,58.521484 c 17.54619,1.02604 35.40398,-1.0845 52.95508,1.00195 4.45315,0.52686 9.15661,3.6999 7.73828,8.77149 0.51414,51.86688 1.63702,103.7497 2.28142,155.62645 0.89272,59.11988 1.78602,118.23975 2.66194,177.35988 -29.14933,-2.64091 -58.57548,-1.28552 -87.70312,-0.18164 -3.70541,1.12345 0.041,-5.28143 -1.14475,-6.78675 1.89881,-110.50823 2.68602,-221.27604 5.48654,-331.6195 5.06079,-3.43117 11.61012,-4.21056 17.72461,-4.17188 z m 45.02149,372.01172 c 9.6985,0.44929 19.90927,-0.0312 28.58789,4.44727 1.84523,6.97985 -0.61377,14.31194 0.89335,21.39416 3.40281,83.25941 3.22348,166.78526 9.37618,249.8988 1.31971,4.04889 3.85592,7.56947 6.69336,10.69336 -46.27248,0.53093 -92.54858,0.19819 -138.82227,0.0547 6.75861,-7.77303 9.05013,-18.31441 8.21199,-28.36491 4.55288,-84.37518 4.78051,-168.98568 8.84075,-253.31868 5.81849,-5.41909 15.10309,-3.56707 22.3405,-4.38103 17.95987,-0.50213 35.91787,0.11013 53.87825,-0.42366 z M 146.61914,811.99414 c 34.43739,0.87171 69.09676,0.12887 103.61914,0.37532 24.20264,0.1397 48.49465,-0.35555 72.63867,0.28484 1.31025,3.05864 1.83576,5.99573 -2.86718,4.37149 -58.55468,-0.0473 -117.1096,0.12883 -175.66407,-0.0942 0.32239,-1.45506 -0.0239,-5.03433 2.27344,-4.9375 z m 4.1543,35.41406 c 57.39091,1.04623 114.79721,-0.55874 172.18554,0.73438 4.71274,5.13534 1.27316,12.38349 2.56594,18.57136 -0.17592,7.14477 1.09021,15.26368 -2.03664,21.66692 -1.69624,1.73114 -1.23205,6.59671 -4.85349,4.78455 -57.30398,-0.41474 -114.61019,0.15162 -171.91409,-0.2826 -3.10386,-4.73622 -4.91981,-10.06075 -3.9225,-15.7219 0.11252,-8.80554 -1.17014,-18.26597 1.29555,-26.657 1.59656,-3.22402 2.53632,-3.81901 6.67969,-3.09571 z m 83.32422,86.95703 c 10,0 20,0 30,0 0,8.44467 0,16.88933 0,25.33399 -20,0 -40,0 -60,0 0,-8.44466 0,-16.88932 0,-25.33399 10,0 20,0 30,0 z m 12.59961,55.58789 c 0.15479,119.70548 0.0222,240.10248 0.0664,360.06838 0,18.7812 0,37.5625 0,56.3437 -8.44401,0 -16.88802,0 -25.33203,0 0,-138.6803 0,-277.3606 0,-416.04098 8.4212,-0.081 16.87932,0.68949 25.26563,-0.3711 z"
       id="path3766"
       inkscape:connector-curvature="0"
       inkscape:label="Edited Pen" />
    <path
       id="path282"
       style="display:inline;fill:#000000;stroke-width:11.5640955"
       d="m 311.32227,8.015625 c -31.44413,0.3741724 -63.98888,17.483376 -89.3125,36.373047 12.49457,9.393123 25.6523,3.104783 38.29296,-5.080078 33.56417,-16.057309 79.14197,-13.90981 112.68165,-0.660156 57.59379,22.081665 108.09973,67.637012 127.71484,127.107422 20.60486,60.70056 10.61292,128.56139 -17.82813,185.04687 -34.41902,71.04393 -85.75646,131.9587 -137.18359,191.16407 -14.96796,16.81532 -30.11995,33.46738 -45.33398,50.06445 0.41936,0.95625 0.79286,1.91651 1.12304,2.64453 1.62376,3.5803 6.74058,10.34581 2.96485,11.41992 0.0214,1.073 0.0314,2.14569 0.0234,3.21875 0.0927,0.33345 0.17709,0.66972 0.24219,1.00977 0.66819,3.4874 0.82699,7.5942 -0.26953,11.0293 -0.0234,0.73649 -0.0722,1.46629 -0.24023,3.52539 -0.0172,0.21073 0.0516,0.78956 -0.0859,0.6289 -1.7293,-2.02149 -3.16353,-3.85234 -4.46875,-5.58789 -0.89152,1.58558 -1.82405,3.14552 -2.64453,4.64453 -0.17629,0.32208 0.36882,-0.63532 0.55273,-0.95312 -0.0809,0.22548 -0.15164,0.45478 -0.24414,0.67578 -0.33502,0.8006 -1.5592,3.81569 -2.41602,5.67383 0.0513,0.53399 0.10591,1.18513 0.16211,1.81836 0.074,0.0958 0.14866,0.19121 0.22266,0.28711 0.0132,-0.0846 0.0219,-0.21065 0.0371,-0.27735 0.0361,-0.15789 0.0508,0.14701 0.0625,0.40625 0.0464,0.0602 0.0942,0.11949 0.14062,0.17969 0.0777,0.10073 -0.0322,0.30436 -0.15039,0.35156 -0.0929,0.0371 0.0275,-0.20098 0.0215,-0.30078 -0.003,-0.0516 -0.008,-0.14777 -0.0117,-0.23047 -0.0332,-0.043 -0.0664,-0.0859 -0.0996,-0.1289 -0.047,0.30196 -0.0851,0.64921 -0.11523,1.05078 0.0602,0.97218 0.0854,1.91325 0.008,2.61719 -0.0156,0.14057 -0.033,0.26948 -0.0488,0.4082 C 353.94931,570.15819 411.6078,503.1439 461.50781,430.05078 494.83475,379.89536 525.97846,324.91634 530.92969,263.75781 537.07212,189.42009 505.46156,113.18453 449.47461,63.703125 411.83033,30.170228 362.44147,7.4804886 311.32227,8.015625 Z m -6.90821,598.089845 c -0.13374,0.0378 -0.31276,0.0938 -0.44922,0.13281 8e-4,0.39854 -0.0169,0.81044 -0.0586,1.2461 0.0943,0.29852 0.18645,0.59807 0.28125,0.89648 0.14969,-0.61129 0.24419,-1.2776 0.24219,-2.03906 -2e-4,-0.0832 -0.0136,-0.15483 -0.0156,-0.23633 z m -1.98633,0.58789 c -0.0839,0.0247 -0.17506,0.0512 -0.25976,0.0762 0.43623,1.05185 0.88821,2.09674 1.33398,3.14453 0,-0.002 0.002,-0.004 0.002,-0.006 -0.35854,-1.07148 -0.71865,-2.143 -1.07618,-3.21484 z m 1.07618,3.21484 c 0.005,0.0143 0.009,0.0287 0.0137,0.043 0.009,0.0201 0.0164,0.0404 0.0254,0.0605 0.2408,-0.39534 0.43378,-0.83733 0.57812,-1.32813 -0.0784,-0.34361 -0.15597,-0.68764 -0.23437,-1.03125 -0.072,0.67372 -0.19895,1.41662 -0.38281,2.25586 z m 0.0137,0.043 c -0.005,-0.0123 -0.0106,-0.0247 -0.0156,-0.0371 -0.0188,0.0857 -0.0366,0.17187 -0.0566,0.25977 0.0332,-0.0502 0.0621,-0.10455 0.0937,-0.15625 -0.007,-0.022 -0.0145,-0.0443 -0.0215,-0.0664 z m 0.9414,0.2168 c -0.002,0.0808 2e-4,0.16139 -0.002,0.24219 -5e-4,0.0242 -0.0361,0.79973 -0.0781,1.56836 0.223,0.5154 0.4328,1.03644 0.6582,1.55078 0.14512,0.33116 -0.0395,-0.72096 -0.0586,-1.08203 -0.17321,-0.75957 -0.34633,-1.51974 -0.51954,-2.2793 z m -9.79101,2.49414 c -0.034,0.0817 -0.0645,0.15723 -0.0996,0.24023 0.0876,0.005 0.17101,0.006 0.25781,0.01 -0.049,-0.0796 -0.1101,-0.1713 -0.1582,-0.25 z m -0.69336,2.86719 c -0.42359,2.41567 -0.95898,4.82037 -1.53906,7.2207 1.85805,-1.52235 2.2521,-3.99564 1.99023,-6.64648 -0.16602,-0.21027 -0.29048,-0.37034 -0.45117,-0.57422 z m 0.89453,14.47851 c -0.17792,0.38474 -0.32971,0.68966 -0.46289,0.93946 0.13375,0.17282 0.26869,0.34468 0.40234,0.51757 0.0309,-0.48695 0.0556,-0.97293 0.0606,-1.45703 z M 159.82812,748.44336 c -3.4214,4.05305 -6.83349,8.11461 -10.21679,12.20117 -43.36288,51.71631 -85.638266,105.32939 -115.140627,166.3418 -25.7422343,55.76498 -35.12455201,120.61847 -17.425781,180.09957 12.85726,44.5189 34.213851,86.8679 61.300781,124.4707 22.754367,31.7286 51.711927,58.5205 83.207027,81.5 13.63152,10.3461 27.70925,20.1039 42.17383,29.2461 -0.0764,-0.3737 -0.13759,-0.6438 -0.23047,-1.1211 -0.0901,-0.4629 -0.0203,-0.943 -0.041,-1.414 -0.0229,-0.5204 -0.0857,-1.0414 -0.13867,-1.5625 -0.65653,-1.0222 -0.76839,-1.1898 -1.72266,-3.0117 -0.0217,-0.041 -0.0407,-0.1717 -0.008,-0.1387 0.40089,0.3924 0.8098,0.7783 1.20898,1.1738 -0.90283,-2.4382 -1.48624,-4.9875 -2.24414,-7.4765 0.0477,-0.1054 0.0919,-0.2126 0.13867,-0.3184 -0.0669,-0.6575 0.013,-1.0211 0.35938,-0.8164 0.20589,-0.471 0.41544,-0.9394 0.64648,-1.3984 0.12527,-0.2489 0.31786,-0.4585 0.47657,-0.6876 0.0254,-0.01 0.0618,0 0.0762,-0.017 0.31779,-0.487 0.58795,-1.0048 0.9082,-1.4903 0.28336,-0.4294 1.04513,-1.3973 1.37695,-1.8261 0.45165,-0.6078 0.88354,-1.2305 1.35352,-1.8243 0.18231,-0.2304 0.40501,-0.4244 0.59961,-0.6445 0.39705,-0.449 0.7863,-0.9054 1.17773,-1.3594 -0.15211,-0.8082 -0.22527,-1.5822 -0.33203,-2.4687 -0.0298,-0.3366 -0.11054,-0.6726 -0.0898,-1.0098 0.0491,-0.7988 0.13551,-1.5962 0.23828,-2.3906 -16.23171,-11.3505 -31.98967,-23.3838 -47.2832,-35.8984 -43.79055,-36.0931 -81.419774,-80.776 -104.048832,-133.1719 -22.911651,-51.2753 -29.779323,-109.8003 -17.345704,-164.709 7.401412,-34.37923 22.85902,-66.88014 44.800782,-94.35937 16.743814,-22.57179 34.225684,-44.5684 52.121094,-66.23047 0.26446,-1.22079 0.59732,-2.59791 1.00977,-3.97852 l 0.006,-0.0351 c -0.1807,0.47685 -0.316,0.84763 -0.52734,1.39453 0.13354,-0.55673 0.39306,-1.37612 0.69727,-2.25391 0.069,-0.38009 0.12781,-0.58613 0.19531,-0.52343 0.27341,-0.76383 0.55586,-1.53133 0.82422,-2.18946 0.33174,-1.12565 1.17072,-3.4381 2.01758,-5.60351 0.14713,-0.56897 0.42244,-1.21594 0.76367,-1.90039 0.0949,-0.22829 0.16079,-0.36686 0.24609,-0.56446 0.25887,-2.00182 1.30491,-3.44907 2.94531,-4.4414 0.0699,-0.0945 0.13879,-0.17759 0.20899,-0.27149 1.03002,-1.55407 2.15684,-3.21486 3.30469,-4.71094 0.75781,-2.72559 2.52646,-4.95102 4.6289,-6.93359 0.0873,-0.23538 0.23047,-0.56419 0.35742,-0.86914 -0.20281,0.14743 -0.40266,0.29775 -0.61132,0.4375 -0.64343,0.43091 0.27551,-0.62894 1.08789,-1.58594 0.32883,-0.73913 0.64215,-1.41252 0.73047,-1.57422 0.85292,-1.56149 1.4692,-2.57657 2.04687,-3.40429 -0.0185,-0.0521 -0.035,-0.10475 -0.0547,-0.15625 -0.45365,-1.18864 -0.98145,-2.35583 -1.27539,-3.59766 -0.28876,-1.6278 -0.42139,-2.11344 -0.46679,-3.05664 -0.681,-3.77023 1.5225,-8.66107 2.54101,-11.26367 0.26519,-0.67765 0.51428,-1.36224 0.77149,-2.04297 0.12262,-0.43184 0.88144,-3.10192 0.96484,-3.41406 0.63204,-2.36653 1.17542,-4.7547 1.6914,-7.14844 z m -15.92578,49.5918 c -0.80926,1.09416 -1.57524,2.21585 -2.23632,3.29492 -0.008,0.0445 -0.0113,0.0761 -0.0234,0.13281 0.0494,-0.0708 0.0837,-0.13168 0.13672,-0.20508 0.10249,-0.1836 0.20599,-0.38184 0.30664,-0.51953 0.53792,-0.73594 1.18319,-1.70647 1.86328,-2.73242 -0.0159,0.01 -0.0311,0.0193 -0.0469,0.0293 z m -2.12304,3.22265 c -0.0499,0.0895 -0.0982,0.15421 -0.14844,0.25391 -0.0406,0.18473 -0.0938,0.39988 -0.17969,0.71289 0.67871,-0.53399 1.49457,-1.31877 2.35352,-2.18359 0.38971,-0.56356 0.79201,-1.10269 1.18945,-1.61524 -0.0993,-0.11228 -0.19953,-0.23397 -0.29883,-0.3418 0.0985,-0.15061 0.24992,-0.42231 0.375,-0.63476 -0.0214,0.009 -0.0451,0.0164 -0.0664,0.0254 -1.25552,1.344 -2.43973,2.6956 -3.22461,3.7832 z m -0.14844,0.25391 c 0.003,-0.0126 0.009,-0.0368 0.0117,-0.0488 -0.32816,0.47038 -0.57363,0.87788 -0.71485,1.20508 -0.0222,0.21877 -0.0282,0.44763 -0.0312,0.67969 0.24107,-0.70653 0.48646,-1.34321 0.73438,-1.83594 z m 0.0352,-0.18164 c 0.11105,-0.62989 -0.22077,0.0151 -0.70899,1.14648 -0.005,0.0395 -0.0136,0.0772 -0.0176,0.11719 0.21943,-0.41089 0.4619,-0.83167 0.72657,-1.26367 z m -3.73633,9.21484 c -0.10034,0.34042 -0.20364,0.69043 -0.18164,0.73633 0.0751,-0.16936 0.15121,-0.3266 0.22851,-0.48242 0.249,-0.68853 0.47292,-1.29849 0.6543,-1.79883 -0.16485,0.28442 -0.42135,0.8587 -0.70117,1.54492 z m 0.0469,0.25391 c -0.0483,0.13356 -0.0987,0.2699 -0.15039,0.41211 0.0371,-0.0461 0.0729,-0.0883 0.14258,-0.21485 0.16708,-0.30331 0.30095,-0.62139 0.42383,-0.94531 -0.14199,0.2239 -0.28023,0.47431 -0.41602,0.74805 z m 0.41602,-0.74805 c 0.10707,-0.16885 0.21398,-0.33924 0.32422,-0.47461 0.0214,-0.10596 0.0506,-0.21002 0.0703,-0.3164 0.0607,-0.32795 0.053,-0.45222 0.004,-0.44922 -0.12028,0.41919 -0.24519,0.83624 -0.39844,1.24023 z m 0.32422,-0.47461 c -0.16933,0.83794 -0.38473,1.66475 -0.63672,2.48242 0.30584,-0.47484 0.60176,-0.99232 0.89648,-1.51367 0.006,-0.67648 0.0495,-1.18171 0.14258,-1.41211 -0.13217,0.14292 -0.27036,0.28026 -0.39453,0.43164 -0.003,0.004 -0.005,0.009 -0.008,0.0117 z m 0.25976,0.96875 c -0.003,0.29452 0.0241,0.71266 0.0371,1.07617 0.0664,-0.0965 0.13183,-0.19274 0.20313,-0.30273 0.001,-0.003 0.003,-0.005 0.004,-0.008 0,-0.003 0.002,-0.005 0.002,-0.008 0.0554,-0.51856 0.12336,-1.02982 0.19726,-1.54101 -0.14646,0.26667 -0.29578,0.52215 -0.44336,0.7832 z m 0.0371,1.07617 c -0.55387,0.80541 -0.95765,1.20465 -1.23242,1.32618 -0.47179,1.41779 -0.98305,2.82536 -1.46094,4.24218 -0.0177,0.11916 -0.0204,0.1441 -0.0391,0.26953 0.35534,-0.42978 0.71074,-0.85953 1.06641,-1.28906 0.56942,-1.44056 1.12472,-2.88649 1.67382,-4.33594 -0.003,-0.0744 -0.005,-0.14099 -0.008,-0.21289 z m -2.73242,5.83789 c 0.0107,-0.0806 0.0192,-0.16148 0.0293,-0.24218 -0.0375,0.1114 -0.0686,0.22437 -0.10547,0.33593 0.0256,-0.031 0.0505,-0.063 0.0762,-0.0937 z m 0.82422,-4.7246 c -0.0641,0.17916 -0.13421,0.34721 -0.19531,0.52343 -0.0284,0.15622 -0.0594,0.32402 -0.10157,0.60938 0.0125,-0.0352 0.0252,-0.0702 0.041,-0.10352 0.10322,-0.33205 0.20023,-0.66368 0.31055,-0.98047 -0.0201,-0.0241 -0.0386,-0.0338 -0.0547,-0.0488 z m 20.19726,-46.91016 c -1.09508,1.11231 -2.18611,2.24545 -3.34961,3.01562 1.05315,0.13624 2.10787,0.26178 3.16211,0.39063 0.0185,-1.13971 0.0593,-2.27669 0.1875,-3.40625 z m 3.51954,3.83984 c -0.006,0.003 -0.0132,0.005 -0.0195,0.008 0.006,3.7e-4 0.0117,0.002 0.0176,0.002 8.5e-4,-0.004 9.6e-4,-0.006 0.002,-0.01 z m -4.58399,12.33399 c -0.0933,0.0853 -0.18804,0.16863 -0.28125,0.2539 -0.0709,0.24954 -0.14775,0.49666 -0.21875,0.7461 0.141,-0.11126 0.27753,-0.21937 0.41797,-0.33008 0.0256,-0.2211 0.0564,-0.44989 0.082,-0.66992 z m -2.35742,2.08984 c -0.21504,0.18119 -0.43261,0.35822 -0.65234,0.5332 -0.21724,0.38821 -0.34225,0.59419 -0.50196,0.86719 0.29808,-0.26598 0.61172,-0.51507 0.91797,-0.77344 0.0765,-0.24477 0.15663,-0.43483 0.23633,-0.62695 z m 1.83789,1.8457 c -0.16593,0.16173 -0.3291,0.30585 -0.48828,0.47071 0.15226,-0.11672 0.31358,-0.24856 0.46094,-0.35742 0.002,-0.007 0.007,-0.009 0.01,-0.0156 0.005,-0.0327 0.0125,-0.065 0.0176,-0.0977 z m -0.0273,0.11329 c -0.0217,0.0674 -0.036,0.14467 -0.043,0.23437 0.005,-0.004 0.009,-0.007 0.0137,-0.01 0.0122,-0.077 0.0271,-0.15348 0.0391,-0.23046 -0.003,0.002 -0.006,0.003 -0.01,0.006 z m -0.043,0.23437 c -0.0536,0.0396 -0.0882,0.0632 -0.14258,0.10352 0.0465,-0.032 0.0956,-0.0605 0.14258,-0.0918 2.4e-4,-0.004 -2.7e-4,-0.008 0,-0.0117 z m 0,0.0215 c -0.17475,0.19755 -0.34729,0.39744 -0.52344,0.59375 0.0485,-0.0237 0.098,-0.0466 0.14648,-0.0703 0.11179,-0.0764 0.22412,-0.15209 0.33594,-0.22851 0.0135,-0.0834 0.0278,-0.16661 0.041,-0.25 5.1e-4,-0.0141 -8.7e-4,-0.0312 0,-0.0449 z m -0.52344,0.59375 c -0.0641,0.0313 -0.12926,0.0625 -0.19336,0.0937 -0.0457,0.0512 -0.10179,0.11357 -0.15039,0.16797 0.093,-0.0633 0.1864,-0.12605 0.2793,-0.18945 0.0215,-0.024 0.0429,-0.0483 0.0644,-0.0723 z m -0.19336,0.0937 c 0.14368,-0.16089 0.36435,-0.40502 0.47266,-0.52734 -0.23638,0.16482 -0.4724,0.33059 -0.68555,0.52149 -0.0492,0.0867 -0.0493,0.1338 0.0879,0.0664 0.0414,-0.0204 0.0836,-0.0403 0.125,-0.0606 z m -2.66211,1.16211 c -0.20887,0.0422 -1.48076,1.24065 -1.84375,1.6836 0.40607,-0.29325 0.79524,-0.49631 1.16602,-0.59571 0.0293,-0.0183 0.0587,-0.0364 0.0879,-0.0547 0.19567,-0.30372 0.39661,-0.60452 0.57812,-0.91602 0.0525,-0.0901 0.0514,-0.12519 0.0117,-0.11719 z m -8.83008,13.40235 c -0.0648,0.18742 -0.19951,0.52386 -0.32031,0.83008 0.0201,-0.0283 0.0423,-0.0558 0.0625,-0.084 0.077,-0.21867 0.20101,-0.58326 0.25781,-0.74609 z m -0.89062,0.33203 c -0.42014,0.56766 -0.82982,1.11933 -1.22852,1.69336 0.0229,0.008 0.0473,0.0154 0.0703,0.0234 0.30049,-0.45238 0.74737,-1.11285 1.15821,-1.7168 z m -2.73633,4.03516 c -0.28047,0.53372 -0.47965,1.10616 -0.65625,1.68945 0.20673,-0.51794 0.42481,-0.99741 0.66211,-1.45313 -0.009,-0.0743 -0.005,-0.15684 -0.006,-0.23632 z m -2.5918,6.92773 c -0.0912,0.24483 -0.20838,0.54833 -0.30859,0.81445 0.02,-0.031 0.034,-0.0654 0.0586,-0.0937 0.15634,-0.17997 0.30799,-0.37937 0.45899,-0.58008 -0.0898,-0.03 -0.15539,-0.0821 -0.20899,-0.14062 z m 1888.38483,63.60937 c -45.1424,-0.006 -90.3648,4.59614 -134.9004,11.81836 -61.2199,10.41353 -120.3579,30.01003 -177.5664,53.92383 -119.2294,48.47376 -233.8393,107.89376 -345.6719,171.45316 -126.108,72.5754 -245.786,156.9077 -378.12113,218.3066 -63.95347,29.8437 -131.04765,53.6659 -200.65234,66.1172 -73.82868,13.7903 -149.16043,17.2906 -224.12891,17.5489 -85.43982,-0.4696 -172.32749,-10.8568 -251.58789,-44.375 -17.94859,-7.3904 -35.37089,-15.9063 -52.30078,-25.3204 -0.0458,0.5325 -0.0428,0.476 -0.0996,1.127 -0.0539,0.7311 -0.0942,1.4634 -0.16211,2.1934 -0.0235,0.2524 -0.0944,0.499 -0.11133,0.7519 -0.0474,0.7112 -0.01,1.4275 -0.0801,2.1367 -0.0795,0.7982 -0.24119,1.587 -0.36914,2.3789 -1.0163,6.2899 -0.60517,3.8788 -2,10.7852 -0.2829,1.3856 -0.6086,2.7624 -0.84766,4.1562 -0.2028,1.1824 -0.30022,1.9645 -0.36719,2.6114 24.52189,12.1794 49.887,22.642 75.89453,31.1992 78.48928,26.3354 161.50293,40.2506 244.36133,39.414 78.09814,-0.7998 156.31838,-7.0985 232.88477,-22.9589 91.61694,-18.5897 177.99513,-57.0079 260.00195,-101.1465 83.8071,-45.0381 163.206,-97.527 243.8008,-147.9395 76.1729,-47.5911 155.1543,-90.5505 235.1953,-131.2441 78.8119,-39.47026 159.3987,-75.7773 242.709,-104.7188 71.253,-23.10743 146.6232,-31.38986 221.2969,-31.00781 41.7108,0.81164 83.6902,4.48602 124.1816,14.90625 17.0366,4.4422 34.0762,10.99578 51.3907,13.1543 -0.3121,-9.08339 -2.5614,-18.77326 -10.0469,-24.78711 -23.3404,-17.77707 -53.5943,-22.03369 -81.9414,-26.39648 -23.4915,-2.81732 -47.1158,-4.0848 -70.7617,-4.0879 z M 207.86914,1312.7695 c 0.031,0.06 0.051,0.1341 0.0937,0.1817 0.002,-0.026 0.0115,-0.08 0.0137,-0.1074 -0.0357,-0.025 -0.0717,-0.049 -0.10742,-0.074 z m 1.14844,15.3731 c -1.53993,0.3795 -2.97437,0.9955 -3.96289,1.6445 -0.58323,0.3829 -1.00407,0.9518 -1.31641,1.6055 0.0178,0.03 0.0289,0.045 0.0469,0.076 1.87985,-0.6939 3.70016,-1.8846 5.55859,-2.7598 -0.0297,-0.1273 -0.073,-0.2498 -0.13672,-0.3613 -0.0691,-0.1211 -0.0125,0.2787 -0.0195,0.4179 -0.0539,-0.2081 -0.11572,-0.415 -0.16992,-0.623 z m -3.49805,12.6367 c 0.29877,0.2938 0.61715,0.5538 0.96485,0.7461 -0.32586,-0.2196 -0.6469,-0.4705 -0.96485,-0.7461 z"
       inkscape:connector-curvature="0"
       inkscape:label="Edited Cable" />
    <g
       id="g258"
       inkscape:label="Modular Drone"
       style="display:inline">
      <path
         style="fill:#000000;stroke-width:3.85878515"
         d="m 1841.6855,883.49414 c -40.1945,33.52488 -81.545,65.8426 -126.1233,93.39618 -36.5341,23.62318 -74.4111,47.20268 -101.3239,82.12918 -7.9429,12.1871 -7.7599,27.5048 -15.252,40.0489 -12.3423,23.4534 -31.3457,42.4328 -47.0474,63.4728 -18.6577,22.8649 -43.1088,39.9136 -62.7849,61.7981 -44.3857,46.8922 -84.2231,97.8528 -128.6633,144.7049 -12.6653,13.8521 -25.4404,27.9901 -36.3052,43.1394 0.1641,7.722 6.5901,14.0152 12.7442,17.7109 5.8963,-0.8639 9.959,-6.3884 15.1695,-9.0028 30.3094,-22.0989 58.3325,-47.3684 89.8181,-67.9366 41.357,-28.2051 87.5474,-51.1856 121.7995,-88.2676 8.8556,-10.2668 13.5042,-23.2538 16.697,-36.1813 12.0582,-27.5633 32.1679,-50.4702 50.6582,-73.8292 30.0998,-35.0463 64.9574,-65.6701 95.3029,-100.4751 42.8299,-47.4809 84.2514,-96.22088 126.8991,-143.85697 2.5455,-3.56906 7.1365,-7.38668 6.976,-11.86251 -3.4085,-7.11244 -9.4189,-12.47375 -14.9863,-17.86719 -1.1927,0.95964 -2.3854,1.91928 -3.5782,2.87891 z"
         id="path248"
         inkscape:connector-curvature="0"
         inkscape:label="Blade 4" />
      <path
         style="fill:#000000;stroke-width:3.85878515"
         d="m 446.92578,881.49219 c -5.46018,5.45163 -11.76247,10.67778 -14.50586,18.13672 15.65772,24.16804 37.6472,43.00883 55.67024,65.37439 48.69569,55.7661 96.88914,112.0577 150.1652,163.5281 27.7511,29.8263 54.84428,61.1811 73.55953,97.6016 4.39032,12.7838 6.89652,26.6677 16.47931,36.931 19.43858,23.7752 46.20177,39.811 71.40604,56.7884 39.64717,25.038 79.24311,50.4618 114.97757,80.9751 13.01309,10.3958 26.13875,21.3878 40.8886,28.9655 6.64065,-2.0569 10.6607,-8.9786 13.31054,-14.916 0.67909,-6.9841 -7.14068,-10.4545 -10.15129,-15.8654 -34.44961,-40.3822 -71.3657,-78.5736 -105.38637,-119.3337 -28.55905,-33.5034 -57.69507,-66.7018 -91.47815,-95.0975 -22.41692,-21.8265 -40.97687,-47.1993 -59.84943,-72.0355 -9.14451,-13.0177 -14.90523,-28.0709 -18.28124,-43.5137 -8.22012,-20.1806 -26.61787,-33.3965 -42.23038,-47.5662 -43.61988,-34.89491 -93.99095,-60.78615 -137.7479,-95.76793 -19.0263,-14.55703 -37.28888,-30.07093 -55.95531,-45.07988 l -0.70553,0.70868 z"
         id="path246"
         inkscape:connector-curvature="0"
         inkscape:label="Blade 3" />
      <path
         style="fill:#000000;stroke-width:3.85878515"
         d="m 1338.8594,61.826172 c -7.1463,2.903081 -13.2711,10.44403 -13.2149,18.197266 4.4014,7.802002 11.5543,13.654571 16.8539,20.832022 39.6689,44.6006 79.8619,88.74179 118.4411,134.29688 22.2412,25.8185 46.0297,50.45415 71.9764,72.47454 22.3762,22.01085 41.1509,47.33986 59.9156,72.39369 8.7856,12.80659 14.5304,27.48753 17.7251,42.61615 8.1567,20.22341 26.6257,33.46919 42.2472,47.65311 43.4022,34.7185 93.183,60.35979 136.7032,94.93643 19.4222,14.77153 37.8607,30.78294 57.1102,45.76788 5.7635,-5.64606 12.3657,-11.08397 15.2793,-18.86914 -15.1586,-23.58502 -36.8189,-42.09405 -54.4037,-63.92647 -49.1329,-56.20963 -97.6838,-113.05131 -151.4283,-164.96191 -27.763,-29.83741 -54.8666,-61.20984 -73.584,-97.64873 -4.3711,-12.54361 -6.7271,-26.3654 -16.1153,-36.45478 -18.6679,-23.22489 -44.9464,-39.15693 -69.4089,-55.71186 -40.1215,-25.42406 -80.3995,-51.00855 -116.6323,-81.916954 -13.2626,-10.603351 -26.6154,-21.730748 -41.4646,-29.678124 z"
         id="path244"
         inkscape:connector-curvature="0"
         inkscape:label="Blade 2" />
      <path
         style="fill:#000000;stroke-width:3.85878515"
         d="m 955.48242,61.666016 c -28.57776,16.246924 -51.67943,40.227644 -78.66234,58.885594 -39.96414,29.90036 -84.33347,53.39994 -123.78691,83.99148 -13.34942,11.28931 -27.31219,23.52832 -34.38864,39.81433 -4.04496,11.98148 -6.82544,24.60623 -14.27214,35.11383 -17.6675,29.05442 -39.68546,55.26424 -62.73363,80.16431 -27.77705,28.76178 -56.77256,56.37068 -82.87297,86.71634 -40.40163,45.36944 -80.08277,91.38375 -120.42595,136.79654 -2.455,3.72418 -8.44265,8.43973 -4.02929,12.90625 3.53181,5.79645 8.62025,10.39725 13.45898,15.07226 39.62009,-32.59813 79.62752,-64.95803 123.27274,-92.09603 38.46266,-24.94834 79.06378,-49.25106 107.61789,-85.99381 8.12662,-12.35089 7.90281,-27.86692 15.52343,-40.54688 12.46945,-23.59709 31.64094,-42.68169 47.45006,-63.87324 18.98351,-23.03845 43.75041,-40.24393 63.53733,-62.51749 43.7054,-46.36638 83.14878,-96.69125 127.03765,-142.97756 12.79234,-13.99067 25.56448,-28.130396 36.6566,-43.506706 -0.1635,-7.725005 -6.8466,-14.699388 -13.38281,-17.949218 z"
         id="path269"
         inkscape:connector-curvature="0"
         inkscape:label="Blade 1" />
      <path
         style="display:inline;fill:#000000;stroke-width:3.87704802"
         d="m 1583.6387,286.74609 c -21.1064,0.45273 -43.6397,14.85734 -47.4942,36.69727 -5.9348,15.1012 -22.7357,20.78592 -35.4396,28.70284 -58.2712,31.47386 -117.3213,61.55609 -176.8787,90.4788 -6.6524,2.16287 -13.4469,-3.67272 -13.2422,-10.46875 -3.4193,-8.66875 -11.5344,-14.31558 -16.7207,-21.87695 -13.367,-15.64513 -30.8362,-29.05088 -51.3801,-33.12577 -18.1371,-5.19863 -37.9459,-5.09278 -55.5132,-12.6323 -7.5594,-4.49001 -15.6914,-8.48696 -24.7253,-8.04909 -15.7749,-0.85131 -32.2198,-0.55498 -48.106,1.30716 -8.9831,3.3 -16.6148,9.93115 -26.4278,11.06445 -24.8332,5.26894 -52.2654,6.42488 -73.3652,21.95703 -10.9066,8.12844 -19.37109,18.97133 -28.70435,28.75993 -4.48839,5.10107 -7.75778,11.09955 -9.5808,17.56234 -2.83992,5.84921 -11.0124,8.24155 -16.11646,3.80574 -66.5916,-31.7249 -130.6159,-68.74946 -198.26831,-98.13387 -10.65901,-2.51261 -14.1334,-14.21364 -16.22266,-23.53906 -12.4688,-29.25462 -55.56478,-38.30467 -78.46679,-16.08789 -15.91439,14.21795 -22.11929,38.86362 -12.42774,58.31836 7.06437,16.25641 23.66805,27.10243 41.13086,28.55078 18.42623,3.69319 30.98514,18.78565 44.64453,30.32422 36.07056,33.30276 70.02222,68.81235 105.19234,103.05239 44.0004,43.79488 87.92,87.67084 131.91704,131.46909 0,61.55599 0,123.11198 0,184.66797 -84.32554,83.58322 -166.05163,169.83462 -252.87695,250.85352 -9.47957,8.4994 -21.10959,15.0975 -34.03125,15.9746 -28.84203,6.6838 -45.05791,42.1981 -32.79883,68.8027 11.63866,27.398 49.70123,37.9154 73.8789,20.7598 9.57047,-5.8217 14.38256,-16.5255 20.15235,-25.7676 14.57312,-17.5706 37.02845,-25.0113 56.1007,-36.3568 59.21716,-30.774 118.62809,-61.478 178.53992,-90.6959 105.487,0 210.974,0 316.4609,0 72.9113,38.1459 147.5933,73.015 218.9747,114.0078 10.3735,6.7245 18.0284,16.8567 23.0996,27.9746 15.8658,22.3808 51.1681,25.4434 71.6699,7.5156 13.9198,-11.2734 19.8587,-30.4895 15.8281,-47.6679 -3.8608,-20.1594 -21.0328,-38.6415 -42.0488,-39.7344 -17.135,-2.5623 -28.4589,-17.1575 -41.1487,-27.4519 -31.2328,-29.0284 -60.7154,-59.8799 -91.1494,-89.73288 -49.3205,-49.41685 -98.4259,-99.04861 -147.7175,-148.49296 0,-61.52539 0,-123.05078 0,-184.57617 87.4715,-86.52509 172.7621,-175.29785 262.7304,-259.25781 8.8412,-5.48546 19.9331,-5.93345 28.2318,-12.51289 12.0531,-6.25102 24.8584,-14.40763 28.9889,-28.18242 8.1552,-19.93382 2.2546,-45.32268 -15.6582,-58.11524 -8.7994,-6.75913 -19.9158,-10.51603 -31.0312,-10.14844 z m -830.21878,80.15625 c 27.94089,8.65681 53.13027,24.41279 79.56523,36.58329 43.14789,21.77656 85.9443,44.24326 128.98555,66.23117 -0.13696,40.76817 -0.30411,81.90482 -8.56445,122.00781 -68.70537,-70.22506 -140.50756,-137.53549 -206.16211,-210.66602 -3.6755,-5.56325 -1.69256,-14.30569 6.17578,-14.15625 z m 781.43558,0.0586 c 8.253,0.24371 9.9569,12.17364 3.8131,16.50959 -65.0038,71.52326 -135.3293,137.90552 -203.0436,206.80095 -6.0827,-2.32741 -3.1815,-10.54813 -4.875,-15.36914 -3.9326,-34.10363 -5.9229,-68.49513 -4.5059,-102.82031 6.7807,-9.18966 19.0552,-10.73804 28.0512,-16.9181 58.9001,-29.71778 116.5798,-62.24954 177.4567,-87.87096 1.0147,-0.24867 2.0596,-0.36088 3.1035,-0.33203 z m -389.2969,17.80859 c 9.7503,-0.28011 19.0443,3.91211 26.623,9.63672 13.8931,3.70179 28.582,1.24097 42.4682,5.37161 26.1483,4.75252 52.33,19.2538 64.2232,43.97995 18.5146,34.55322 19.5813,74.85395 22.3397,113.0496 1.0487,21.20725 1.5746,42.437 2.6779,63.64181 -6.7286,4.41026 -13.4584,8.81887 -20.1875,13.22851 -0.5236,127.8248 2.0611,255.7822 -5.4707,383.46287 -88.3979,-0.6983 -176.927,1.4151 -265.2422,-1.498 -7.7494,-3.1018 -5.3676,-12.6659 -5.8418,-19.07229 -2.0592,-119.8672 -3.3517,-239.7456 -4.9707,-359.61914 -9.35694,-8.72151 -19.09486,-20.21155 -17.31892,-33.93164 0.18592,-41.62944 1.87006,-83.53837 9.68276,-124.50857 5.84356,-26.50473 20.39836,-52.55684 44.74366,-66.06955 21.7771,-13.08954 47.7328,-16.57883 72.705,-16.74219 8.6714,-2.47864 15.0313,-10.82724 24.6993,-10.45117 2.9431,-0.35177 5.9078,-0.44054 8.8691,-0.47852 z m 170.0605,499.83399 c 75.2955,76.50591 153.4769,150.27748 225.6309,229.80858 4.5446,5.7693 2.4056,14.8932 -4.4277,17.7813 -8.8056,3.1144 -16.0553,-5.3965 -23.6592,-8.0756 -67.6699,-34.6085 -134.2293,-71.3346 -201.7959,-106.1471 -6.1613,-12.936 -2.182,-27.59337 -3.1603,-41.28992 0.7927,-31.79519 3.0902,-63.52907 4.1759,-95.31359 1.0788,1.07877 2.1576,2.15755 3.2363,3.23633 z m -340.06246,1.3496 c 1.56414,42.51659 5.09259,84.97756 4.89258,127.54688 -8.5794,9.7982 -22.08419,12.4307 -32.60716,19.4898 -63.77394,33.1223 -126.71638,67.9402 -191.37136,99.3012 -7.1357,2.3228 -15.37245,-5.4485 -11.88086,-12.6465 3.84862,-11.0834 14.61072,-17.3698 21.37001,-26.4651 67.97816,-72.3647 139.66102,-141.10348 209.37804,-211.76729 0.0729,1.51367 0.14583,3.02734 0.21875,4.54101 z"
         id="path117"
         inkscape:connector-curvature="0"
         inkscape:label="Edited Drone - NoBlades" />
    </g>
    <g
       aria-label="IX Sthlm"
       transform="matrix(1.1325645,0,0,1.1325645,-350.00351,-142.12179)"
       style="font-style:normal;font-weight:normal;font-size:40px;line-height:1.25;font-family:sans-serif;letter-spacing:0px;word-spacing:0px;display:inline;fill:#000000;fill-opacity:1;stroke:none"
       id="flowRoot4040"
       inkscape:label="Text - Talyz New Roman - IX Sthlm - Paths">
      <path
         d="m 1808.3538,1649.3941 q 9.8667,-8 25.0667,2.6667 11.2,8 11.2,18.4 0,4.5333 2.4,4.5333 3.2,-0.5333 13.0667,-9.0666 9.0666,-7.7334 16.8,-9.0667 8,-1.3333 20.2666,2.9333 9.3334,3.4667 12.8,12.5334 3.7334,8.8 3.7334,29.0666 0,22.4 2.6666,37.6 2.9334,17.0667 -2.1333,21.3334 -5.0667,4 -16.8,-5.6 -6.9333,-6.1334 -9.6,-15.4667 -2.6667,-9.6 -2.6667,-29.3333 0,-18.9334 -1.8666,-22.1334 -1.6,-2.4 -6.4,1.6 -4.8,3.7334 -10.6667,11.7334 -5.8667,7.7333 -9.8667,16.5333 -6.1333,12.5333 -10.6666,14.6667 -4.5334,1.8666 -14.4,-4.2667 -5.3334,-3.2 -9.0667,-12.2667 -3.7333,-9.0666 -3.7333,-18.9333 0,-4 -1.8667,-4.5333 -1.8667,-0.8 -4.5333,2.6666 -4.2667,5.3334 -12,22.1334 -7.4667,16.5333 -8.8,23.2 -1.3334,6.4 -6.9334,8 -5.6,1.3333 -13.0666,-2.6667 -9.3334,-4.8 -12.2667,-15.4667 -2.6667,-10.6666 -2.6667,-41.8666 0,-36.5334 1.6,-38.9334 1.3334,-2.1333 11.4667,-2.4 10.1333,-0.2666 14.6667,1.6 4.2666,1.6 6.1333,7.4667 1.8667,5.8667 -0.5333,10.1333 -2.4,4.8 -0.8,4.8 3.2,-0.5333 8,-8.5333 5.3333,-8.2667 11.4666,-13.0667 z"
         style="font-style:normal;font-variant:normal;font-weight:normal;font-stretch:normal;font-size:266.66665649px;font-family:'Talyz New Roman';-inkscape-font-specification:'Talyz New Roman, '"
         id="path4062"
         inkscape:connector-curvature="0"
         inkscape:label="m" />
      <path
         d="m 1663.0872,1601.1275 q -1.8667,-5.6 3.4666,-11.2 5.3334,-5.8667 8.5334,-5.8667 2.6666,0 9.3333,4 6.6667,4 8.8,6.6667 1.6,2.4 0.2667,29.6 -1.0667,26.9333 -3.4667,44.8 -1.8667,12.5333 -1.3333,45.8666 0.5333,33.0667 2.6666,38.4 1.3334,3.7334 -2.4,11.2 -3.4666,7.4667 -6.6666,7.4667 -8,0 -13.0667,-9.8667 -5.0667,-9.8666 -6.4,-27.2 -1.0667,-15.7333 -1.0667,-50.1333 0,-34.6667 1.0667,-36.5333 1.6,-2.4 1.6,-22.4 0,-20.2667 -1.3333,-24.8 z"
         style="font-style:normal;font-variant:normal;font-weight:normal;font-stretch:normal;font-size:266.66665649px;font-family:'Talyz New Roman';-inkscape-font-specification:'Talyz New Roman, '"
         id="path4060"
         inkscape:connector-curvature="0"
         inkscape:label="l" />
      <path
         d="m 1466.808,1588.0608 q 1.3334,-0.8 4.8,-0.5333 3.7334,0 7.4667,0.5333 4,0.5333 8,1.6 4,1.0667 6.1333,2.1333 2.9334,1.6 3.2,10.4 0.5334,8.5334 -0.8,49.3334 l -1.6,57.6 8,-7.4667 q 8,-7.4667 16.8,-12.8 6.6667,-4 9.3334,-4 2.9333,-0.2667 11.7333,2.6667 11.4667,4 14.9333,11.4666 3.7334,7.2 5.3334,30.4 1.6,22.4 3.7333,25.3334 2.1333,2.9333 1.6,9.6 -0.8,6.1333 -5.8667,7.4666 -4.8,1.0667 -11.4666,-3.4666 -2.9334,-1.8667 -4.8,-4 -1.8667,-2.1334 -3.4667,-5.6 -1.6,-3.7334 -2.6667,-8.5334 -1.0666,-4.8 -2.4,-13.0666 -2.4,-15.7334 -3.7333,-17.8667 -1.6,-2.4 -9.6,5.3333 -7.7333,7.4667 -14.9333,17.6 -7.2,10.1334 -7.2,14.1334 0,3.7333 -5.3334,8.5333 -5.3333,4.8 -9.3333,4.8 -4,0 -11.4667,-6.4 -5.6,-4.5333 -6.4,-7.4667 -0.8,-2.9333 0.2667,-14.4 2.4,-24 2.4,-73.3333 0,-49.3333 -2.6667,-57.8667 -5.8666,-19.7333 0,-22.1333 z"
         style="font-style:normal;font-variant:normal;font-weight:normal;font-stretch:normal;font-size:266.66665649px;font-family:'Talyz New Roman';-inkscape-font-specification:'Talyz New Roman, '"
         id="path4058"
         inkscape:connector-curvature="0"
         inkscape:label="h" />
      <path
         d="m 1313.9956,1577.3941 q 6.1333,-9.3333 20.8,-0.2666 8,4.8 7.7333,10.9333 0,5.8667 -7.7333,19.2 -5.6,9.0667 -14.1334,32.2667 -8.5333,22.9333 -8.5333,28 0,2.6666 13.8667,1.3333 29.0666,-3.2 40,-3.2 11.2,-0.2667 17.0666,2.6667 6.9334,3.7333 7.2,8.5333 0.2667,4.5333 -5.8666,9.3333 -4.5334,3.4667 -13.0667,5.8667 -8.5333,2.1333 -40,8.2667 -16.5333,2.9333 -20,4.5333 -3.2,1.6 -4.8,7.4667 -2.4,7.7333 0.2667,13.0666 2.9333,5.0667 3.7333,10.4 1.0667,8.8 4.5333,8.8 4.2667,0 17.6,-13.6 22.1334,-22.9333 22.1334,-12.5333 0,1.0667 0.5333,2.1333 0.8,0.8 1.8667,1.6 1.3333,0.8 2.6666,1.3334 4,1.3333 3.7334,5.0666 0,3.4667 -4.5334,14.9334 -7.2,19.2 -22.1333,28.5333 -7.2,4.5333 -15.7333,4.5333 -8.5334,0 -16.2667,-3.7333 -7.7333,-4 -14.4,-10.4 -6.4,-6.4 -10.4,-15.4667 -3.7333,-9.3333 -3.7333,-18.9333 0,-7.4667 -1.0667,-11.2 -0.8,-4 -2.9333,-5.3333 -1.8667,-1.3334 -5.0667,-0.2667 -5.6,1.6 -13.0667,-1.6 -7.2,-3.4667 -11.7333,-9.6 -4.5333,-6.1333 -2.9333,-10.9333 1.6,-5.0667 6.4,-7.2 4.8,-2.1334 18.1333,-3.7334 7.2,-0.8 9.8667,-1.6 2.9333,-0.8 4,-2.1333 1.3333,-1.3333 2.1333,-4.2667 1.3333,-6.4 8.2667,-25.3333 6.9333,-19.2 8.5333,-27.4667 1.0667,-6.1333 6.6667,-19.4666 5.8666,-13.3334 10.4,-20.5334 z"
         style="font-style:normal;font-variant:normal;font-weight:normal;font-stretch:normal;font-size:266.66665649px;font-family:'Talyz New Roman';-inkscape-font-specification:'Talyz New Roman, '"
         id="path4056"
         inkscape:connector-curvature="0"
         inkscape:label="t" />
      <path
         d="m 1123.8039,1570.9941 q 17.6,-5.3333 27.2,1.6 9.6,6.6667 2.9333,20.2667 -1.3333,2.6667 -6.1333,6.4 -4.8,3.7333 -10.1334,6.4 -5.3333,2.6667 -8.5333,2.6667 -3.2,0 -15.4667,11.4666 -12,11.2 -16.5333,18.6667 -8.2667,13.3333 -0.5333,14.4 3.2,0.5333 12.8,2.1333 9.6,1.6 17.6,4.8 8,3.2 8.5333,3.2 1.3333,-0.5333 8.5333,3.7334 7.4667,4 11.4667,7.4666 18.4,16.8 22.4,24.5334 4.2667,7.7333 1.6,20.8 -1.8667,8.5333 -2.1333,10.9333 -0.2667,2.1333 -4,10.4 -3.7334,8.2667 -5.0667,12.8 -2.4,7.7333 -17.0667,14.9333 -14.4,6.9334 -31.2,9.0667 -16.8,1.8667 -31.2,-2.4 -4,-1.6 -10.9333,-8.2667 -6.9333,-6.9333 -6.4,-10.6666 0.8,-5.3334 12.2667,-10.9334 11.7333,-5.6 28,-8.5333 6.4,-1.0667 14.1333,-7.4667 7.7333,-6.6666 10.4,-13.3333 3.2,-7.7333 3.2,-8.2667 0,-0.8 -7.7333,-5.8666 -13.3334,-8.2667 -33.0667,-10.6667 -9.6,-1.0667 -22.6667,-7.4667 -12.8,-6.6666 -19.2,-13.3333 -5.0666,-5.3333 -7.4666,-14.4 -2.1334,-9.0667 -0.2667,-16.5333 1.6,-6.1334 19.7333,-25.6 18.1334,-19.4667 29.3334,-26.9334 12.8,-8.8 14.1333,-10.9333 1.3333,-2.1333 11.4667,-5.0667 z"
         style="font-style:normal;font-variant:normal;font-weight:normal;font-stretch:normal;font-size:266.66665649px;font-family:'Talyz New Roman';-inkscape-font-specification:'Talyz New Roman, '"
         id="path4054"
         inkscape:connector-curvature="0"
         inkscape:label="S" />
      <path
         d="m 679.65389,1580.8608 q 13.06667,-2.4 20.8,0.5333 7.73333,2.9334 7.73333,10.4 0,10.6667 -17.86666,21.8667 -2.13334,1.3333 -5.6,4.2667 -3.2,2.9333 -6.93334,6.4 -3.46666,3.4666 -7.2,7.4666 -3.73333,4 -6.66666,8 -15.46667,18.9334 -18.93334,23.2 -2.13333,2.6667 -1.06666,6.9334 1.33333,4 8,17.0666 27.2,50.9334 39.46666,69.6 12.26667,18.4 26.93334,29.3334 12.53333,9.0666 19.19999,15.4666 l 6.93334,6.4 -5.6,5.8667 q -3.46667,3.7333 -6.13334,4.5333 -2.66666,0.8 -7.99999,0 -8.26667,-1.6 -17.6,-7.7333 -12.53334,-7.7333 -27.2,-24 -14.66667,-16.2667 -14.66667,-22.1333 0,-2.6667 -7.73333,-12.5334 -7.73334,-9.8666 -9.6,-13.3333 -1.6,-3.4667 -7.73333,-13.0667 -5.86667,-9.6 -10.66667,-18.6666 -3.73333,-6.9334 -5.06667,-7.4667 -1.06666,-0.8 -4.26666,2.6667 -4.26667,4.5333 -13.33334,22.4 -6.93333,13.6 -13.6,22.1333 -6.4,8.5333 -9.86666,8.5333 -2.66667,0 -10.66667,-6.9333 -6.93333,-6.1333 -6.4,-11.7333 0.53333,-5.6 9.6,-17.3334 7.73333,-10.1333 9.06667,-14.1333 1.6,-4 11.2,-19.7333 9.6,-16 9.6,-20.5334 0,-5.3333 -16.53334,-25.0666 -16.26666,-20 -22.66666,-22.6667 -2.93334,-1.0667 -6.93334,-4.2667 -3.73333,-3.2 -5.86666,-6.4 -3.73333,-5.6 -4,-7.7333 -0.26667,-2.1333 2.4,-6.1333 3.46667,-5.6 11.46666,-6.6667 8,-1.0667 16.26667,3.2 4.53333,2.1333 12.8,10.1333 8.26667,8 15.73333,17.0667 7.46667,9.0667 9.6,13.8667 3.2,7.2 7.46667,5.8666 4.26667,-1.6 11.46667,-12 5.6,-8.2666 14.39999,-18.1333 9.06667,-10.1333 17.06667,-17.0667 8,-6.9333 11.2,-7.7333 z"
         style="font-style:normal;font-variant:normal;font-weight:normal;font-stretch:normal;font-size:266.66665649px;font-family:'Talyz New Roman';-inkscape-font-specification:'Talyz New Roman, '"
         id="path4052"
         inkscape:connector-curvature="0"
         inkscape:label="X" />
      <path
         d="m 422.30807,1576.0608 q 9.6,-12.2667 24.26667,1.8667 l 8.53333,8 -1.06667,34.1333 q -1.6,48.5333 -5.06667,69.8667 -1.59999,9.0666 -0.79999,32 1.06666,22.6666 3.19999,30.9333 3.2,12 0.26667,17.6 -3.73333,7.2 -14.13333,3.4667 -10.13333,-4 -16.26667,-14.9334 -2.13333,-4.2666 -5.6,-22.9333 -3.2,-18.9333 -2.13333,-20.8 1.06667,-1.8667 2.4,-21.8667 1.33333,-20 2.93333,-34.4 1.06667,-12 0.8,-40 0,-28.2666 -1.33333,-32.8 -1.06667,-3.7333 4,-10.1333 z"
         style="font-style:normal;font-variant:normal;font-weight:normal;font-stretch:normal;font-size:266.66665649px;font-family:'Talyz New Roman';-inkscape-font-specification:'Talyz New Roman, '"
         id="path4050"
         inkscape:connector-curvature="0"
         inkscape:label="I" />
    </g>
  </g>
</svg>
